<svg width="159" height="69" viewBox="0 0 159 69" fill="none" xmlns="http://www.w3.org/2000/svg">
<path d="M2.7 6.195H8.25V7.14H2.7V6.195ZM2.82 11.04H9.135V12H1.71V1.5H8.91V2.46H2.82V11.04ZM15.5392 4.05C16.1792 4.05 16.7392 4.175 17.2192 4.425C17.7092 4.665 18.0892 5.035 18.3592 5.535C18.6392 6.035 18.7792 6.665 18.7792 7.425V12H17.7142V7.53C17.7142 6.7 17.5042 6.075 17.0842 5.655C16.6742 5.225 16.0942 5.01 15.3442 5.01C14.7842 5.01 14.2942 5.125 13.8742 5.355C13.4642 5.575 13.1442 5.9 12.9142 6.33C12.6942 6.75 12.5842 7.26 12.5842 7.86V12H11.5192V4.125H12.5392V6.285L12.3742 5.88C12.6242 5.31 13.0242 4.865 13.5742 4.545C14.1242 4.215 14.7792 4.05 15.5392 4.05ZM20.4859 14.985C20.1659 14.985 19.8609 14.94 19.5709 14.85C19.2709 14.77 19.0209 14.645 18.8209 14.475L19.1959 13.665C19.5159 13.935 19.9259 14.07 20.4259 14.07C20.8459 14.07 21.1659 13.945 21.3859 13.695C21.6159 13.445 21.7309 13.075 21.7309 12.585V4.125H22.7959V12.585C22.7959 13.315 22.5959 13.895 22.1959 14.325C21.8059 14.765 21.2359 14.985 20.4859 14.985ZM22.2709 2.385C22.0509 2.385 21.8659 2.31 21.7159 2.16C21.5659 2.01 21.4909 1.83 21.4909 1.62C21.4909 1.41 21.5659 1.235 21.7159 1.095C21.8659 0.944999 22.0509 0.869999 22.2709 0.869999C22.4909 0.869999 22.6759 0.939999 22.8259 1.08C22.9759 1.22 23.0509 1.395 23.0509 1.605C23.0509 1.825 22.9759 2.01 22.8259 2.16C22.6859 2.31 22.5009 2.385 22.2709 2.385ZM28.9821 12.075C28.2221 12.075 27.5371 11.905 26.9271 11.565C26.3271 11.215 25.8521 10.74 25.5021 10.14C25.1521 9.53 24.9771 8.835 24.9771 8.055C24.9771 7.265 25.1521 6.57 25.5021 5.97C25.8521 5.37 26.3271 4.9 26.9271 4.56C27.5271 4.22 28.2121 4.05 28.9821 4.05C29.7621 4.05 30.4521 4.22 31.0521 4.56C31.6621 4.9 32.1371 5.37 32.4771 5.97C32.8271 6.57 33.0021 7.265 33.0021 8.055C33.0021 8.835 32.8271 9.53 32.4771 10.14C32.1371 10.74 31.6621 11.215 31.0521 11.565C30.4421 11.905 29.7521 12.075 28.9821 12.075ZM28.9821 11.13C29.5521 11.13 30.0571 11.005 30.4971 10.755C30.9371 10.495 31.2821 10.135 31.5321 9.675C31.7921 9.205 31.9221 8.665 31.9221 8.055C31.9221 7.435 31.7921 6.895 31.5321 6.435C31.2821 5.975 30.9371 5.62 30.4971 5.37C30.0571 5.11 29.5571 4.98 28.9971 4.98C28.4371 4.98 27.9371 5.11 27.4971 5.37C27.0571 5.62 26.7071 5.975 26.4471 6.435C26.1871 6.895 26.0571 7.435 26.0571 8.055C26.0571 8.665 26.1871 9.205 26.4471 9.675C26.7071 10.135 27.0571 10.495 27.4971 10.755C27.9371 11.005 28.4321 11.13 28.9821 11.13ZM35.0167 14.985C34.6467 14.985 34.2917 14.925 33.9517 14.805C33.6217 14.685 33.3367 14.505 33.0967 14.265L33.5917 13.47C33.7917 13.66 34.0067 13.805 34.2367 13.905C34.4767 14.015 34.7417 14.07 35.0317 14.07C35.3817 14.07 35.6817 13.97 35.9317 13.77C36.1917 13.58 36.4367 13.24 36.6667 12.75L37.1767 11.595L37.2967 11.43L40.5367 4.125H41.5867L37.6417 12.945C37.4217 13.455 37.1767 13.86 36.9067 14.16C36.6467 14.46 36.3617 14.67 36.0517 14.79C35.7417 14.92 35.3967 14.985 35.0167 14.985ZM37.1167 12.225L33.4867 4.125H34.5967L37.8067 11.355L37.1167 12.225ZM51.9473 12V10.26L51.9023 9.975V7.065C51.9023 6.395 51.7123 5.88 51.3323 5.52C50.9623 5.16 50.4073 4.98 49.6673 4.98C49.1573 4.98 48.6723 5.065 48.2123 5.235C47.7523 5.405 47.3623 5.63 47.0423 5.91L46.5623 5.115C46.9623 4.775 47.4423 4.515 48.0023 4.335C48.5623 4.145 49.1523 4.05 49.7723 4.05C50.7923 4.05 51.5773 4.305 52.1273 4.815C52.6873 5.315 52.9673 6.08 52.9673 7.11V12H51.9473ZM49.2323 12.075C48.6423 12.075 48.1273 11.98 47.6873 11.79C47.2573 11.59 46.9273 11.32 46.6973 10.98C46.4673 10.63 46.3523 10.23 46.3523 9.78C46.3523 9.37 46.4473 9 46.6373 8.67C46.8373 8.33 47.1573 8.06 47.5973 7.86C48.0473 7.65 48.6473 7.545 49.3973 7.545H52.1123V8.34H49.4273C48.6673 8.34 48.1373 8.475 47.8373 8.745C47.5473 9.015 47.4023 9.35 47.4023 9.75C47.4023 10.2 47.5773 10.56 47.9273 10.83C48.2773 11.1 48.7673 11.235 49.3973 11.235C49.9973 11.235 50.5123 11.1 50.9423 10.83C51.3823 10.55 51.7023 10.15 51.9023 9.63L52.1423 10.365C51.9423 10.885 51.5923 11.3 51.0923 11.61C50.6023 11.92 49.9823 12.075 49.2323 12.075ZM61.9008 12.075C61.2508 12.075 60.6358 11.985 60.0558 11.805C59.4758 11.615 59.0208 11.38 58.6908 11.1L59.1708 10.26C59.4908 10.5 59.9008 10.71 60.4008 10.89C60.9008 11.06 61.4258 11.145 61.9758 11.145C62.7258 11.145 63.2658 11.03 63.5958 10.8C63.9258 10.56 64.0908 10.245 64.0908 9.855C64.0908 9.565 63.9958 9.34 63.8058 9.18C63.6258 9.01 63.3858 8.885 63.0858 8.805C62.7858 8.715 62.4508 8.64 62.0808 8.58C61.7108 8.52 61.3408 8.45 60.9708 8.37C60.6108 8.29 60.2808 8.175 59.9808 8.025C59.6808 7.865 59.4358 7.65 59.2458 7.38C59.0658 7.11 58.9758 6.75 58.9758 6.3C58.9758 5.87 59.0958 5.485 59.3358 5.145C59.5758 4.805 59.9258 4.54 60.3858 4.35C60.8558 4.15 61.4258 4.05 62.0958 4.05C62.6058 4.05 63.1158 4.12 63.6258 4.26C64.1358 4.39 64.5558 4.565 64.8858 4.785L64.4208 5.64C64.0708 5.4 63.6958 5.23 63.2958 5.13C62.8958 5.02 62.4958 4.965 62.0958 4.965C61.3858 4.965 60.8608 5.09 60.5208 5.34C60.1908 5.58 60.0258 5.89 60.0258 6.27C60.0258 6.57 60.1158 6.805 60.2958 6.975C60.4858 7.145 60.7308 7.28 61.0308 7.38C61.3408 7.47 61.6758 7.545 62.0358 7.605C62.4058 7.665 62.7708 7.74 63.1308 7.83C63.5008 7.91 63.8358 8.025 64.1358 8.175C64.4458 8.315 64.6908 8.52 64.8708 8.79C65.0608 9.05 65.1558 9.395 65.1558 9.825C65.1558 10.285 65.0258 10.685 64.7658 11.025C64.5158 11.355 64.1458 11.615 63.6558 11.805C63.1758 11.985 62.5908 12.075 61.9008 12.075ZM76.95 4.05C77.59 4.05 78.145 4.175 78.615 4.425C79.095 4.665 79.465 5.035 79.725 5.535C79.995 6.035 80.13 6.665 80.13 7.425V12H79.065V7.53C79.065 6.7 78.865 6.075 78.465 5.655C78.075 5.225 77.52 5.01 76.8 5.01C76.26 5.01 75.79 5.125 75.39 5.355C75 5.575 74.695 5.9 74.475 6.33C74.265 6.75 74.16 7.26 74.16 7.86V12H73.095V7.53C73.095 6.7 72.895 6.075 72.495 5.655C72.095 5.225 71.535 5.01 70.815 5.01C70.285 5.01 69.82 5.125 69.42 5.355C69.02 5.575 68.71 5.9 68.49 6.33C68.28 6.75 68.175 7.26 68.175 7.86V12H67.11V4.125H68.13V6.255L67.965 5.88C68.205 5.31 68.59 4.865 69.12 4.545C69.66 4.215 70.295 4.05 71.025 4.05C71.795 4.05 72.45 4.245 72.99 4.635C73.53 5.015 73.88 5.59 74.04 6.36L73.62 6.195C73.85 5.555 74.255 5.04 74.835 4.65C75.425 4.25 76.13 4.05 76.95 4.05ZM86.2282 12.075C85.4682 12.075 84.7832 11.905 84.1732 11.565C83.5732 11.215 83.0982 10.74 82.7482 10.14C82.3982 9.53 82.2232 8.835 82.2232 8.055C82.2232 7.265 82.3982 6.57 82.7482 5.97C83.0982 5.37 83.5732 4.9 84.1732 4.56C84.7732 4.22 85.4582 4.05 86.2282 4.05C87.0082 4.05 87.6982 4.22 88.2982 4.56C88.9082 4.9 89.3832 5.37 89.7232 5.97C90.0732 6.57 90.2482 7.265 90.2482 8.055C90.2482 8.835 90.0732 9.53 89.7232 10.14C89.3832 10.74 88.9082 11.215 88.2982 11.565C87.6882 11.905 86.9982 12.075 86.2282 12.075ZM86.2282 11.13C86.7982 11.13 87.3032 11.005 87.7432 10.755C88.1832 10.495 88.5282 10.135 88.7782 9.675C89.0382 9.205 89.1682 8.665 89.1682 8.055C89.1682 7.435 89.0382 6.895 88.7782 6.435C88.5282 5.975 88.1832 5.62 87.7432 5.37C87.3032 5.11 86.8032 4.98 86.2432 4.98C85.6832 4.98 85.1832 5.11 84.7432 5.37C84.3032 5.62 83.9532 5.975 83.6932 6.435C83.4332 6.895 83.3032 7.435 83.3032 8.055C83.3032 8.665 83.4332 9.205 83.6932 9.675C83.9532 10.135 84.3032 10.495 84.7432 10.755C85.1832 11.005 85.6782 11.13 86.2282 11.13ZM95.6325 12.075C94.8725 12.075 94.1875 11.905 93.5775 11.565C92.9775 11.215 92.5025 10.74 92.1525 10.14C91.8025 9.53 91.6275 8.835 91.6275 8.055C91.6275 7.265 91.8025 6.57 92.1525 5.97C92.5025 5.37 92.9775 4.9 93.5775 4.56C94.1775 4.22 94.8625 4.05 95.6325 4.05C96.4125 4.05 97.1025 4.22 97.7025 4.56C98.3125 4.9 98.7875 5.37 99.1275 5.97C99.4775 6.57 99.6525 7.265 99.6525 8.055C99.6525 8.835 99.4775 9.53 99.1275 10.14C98.7875 10.74 98.3125 11.215 97.7025 11.565C97.0925 11.905 96.4025 12.075 95.6325 12.075ZM95.6325 11.13C96.2025 11.13 96.7075 11.005 97.1475 10.755C97.5875 10.495 97.9325 10.135 98.1825 9.675C98.4425 9.205 98.5725 8.665 98.5725 8.055C98.5725 7.435 98.4425 6.895 98.1825 6.435C97.9325 5.975 97.5875 5.62 97.1475 5.37C96.7075 5.11 96.2075 4.98 95.6475 4.98C95.0875 4.98 94.5875 5.11 94.1475 5.37C93.7075 5.62 93.3575 5.975 93.0975 6.435C92.8375 6.895 92.7075 7.435 92.7075 8.055C92.7075 8.665 92.8375 9.205 93.0975 9.675C93.3575 10.135 93.7075 10.495 94.1475 10.755C94.5875 11.005 95.0825 11.13 95.6325 11.13ZM104.317 12.075C103.577 12.075 103.007 11.875 102.607 11.475C102.207 11.075 102.007 10.51 102.007 9.78V2.385H103.072V9.72C103.072 10.18 103.187 10.535 103.417 10.785C103.657 11.035 103.997 11.16 104.437 11.16C104.907 11.16 105.297 11.025 105.607 10.755L105.982 11.52C105.772 11.71 105.517 11.85 105.217 11.94C104.927 12.03 104.627 12.075 104.317 12.075ZM100.597 5.01V4.125H105.472V5.01H100.597ZM111.941 4.05C112.581 4.05 113.141 4.175 113.621 4.425C114.111 4.665 114.491 5.035 114.761 5.535C115.041 6.035 115.181 6.665 115.181 7.425V12H114.116V7.53C114.116 6.7 113.906 6.075 113.486 5.655C113.076 5.225 112.496 5.01 111.746 5.01C111.186 5.01 110.696 5.125 110.276 5.355C109.866 5.575 109.546 5.9 109.316 6.33C109.096 6.75 108.986 7.26 108.986 7.86V12H107.921V0.869999H108.986V6.285L108.776 5.88C109.026 5.31 109.426 4.865 109.976 4.545C110.526 4.215 111.181 4.05 111.941 4.05ZM4.83 30.075C4.01 30.075 3.29 29.905 2.67 29.565C2.05 29.215 1.565 28.74 1.215 28.14C0.865 27.53 0.69 26.835 0.69 26.055C0.69 25.275 0.855 24.585 1.185 23.985C1.525 23.385 1.985 22.915 2.565 22.575C3.155 22.225 3.815 22.05 4.545 22.05C5.285 22.05 5.94 22.22 6.51 22.56C7.09 22.89 7.545 23.36 7.875 23.97C8.205 24.57 8.37 25.265 8.37 26.055C8.37 26.105 8.365 26.16 8.355 26.22C8.355 26.27 8.355 26.325 8.355 26.385H1.5V25.59H7.785L7.365 25.905C7.365 25.335 7.24 24.83 6.99 24.39C6.75 23.94 6.42 23.59 6 23.34C5.58 23.09 5.095 22.965 4.545 22.965C4.005 22.965 3.52 23.09 3.09 23.34C2.66 23.59 2.325 23.94 2.085 24.39C1.845 24.84 1.725 25.355 1.725 25.935V26.1C1.725 26.7 1.855 27.23 2.115 27.69C2.385 28.14 2.755 28.495 3.225 28.755C3.705 29.005 4.25 29.13 4.86 29.13C5.34 29.13 5.785 29.045 6.195 28.875C6.615 28.705 6.975 28.445 7.275 28.095L7.875 28.785C7.525 29.205 7.085 29.525 6.555 29.745C6.035 29.965 5.46 30.075 4.83 30.075ZM9.11801 30L12.448 25.68L12.433 26.205L9.26801 22.125H10.468L13.063 25.5L12.613 25.485L15.208 22.125H16.378L13.183 26.25L13.198 25.68L16.558 30H15.343L12.598 26.4L13.018 26.46L10.318 30H9.11801ZM22.3957 30.075C21.7157 30.075 21.1007 29.92 20.5507 29.61C20.0007 29.29 19.5607 28.835 19.2307 28.245C18.9107 27.645 18.7507 26.915 18.7507 26.055C18.7507 25.195 18.9107 24.47 19.2307 23.88C19.5507 23.28 19.9857 22.825 20.5357 22.515C21.0857 22.205 21.7057 22.05 22.3957 22.05C23.1457 22.05 23.8157 22.22 24.4057 22.56C25.0057 22.89 25.4757 23.36 25.8157 23.97C26.1557 24.57 26.3257 25.265 26.3257 26.055C26.3257 26.855 26.1557 27.555 25.8157 28.155C25.4757 28.755 25.0057 29.225 24.4057 29.565C23.8157 29.905 23.1457 30.075 22.3957 30.075ZM18.3307 32.91V22.125H19.3507V24.495L19.2457 26.07L19.3957 27.66V32.91H18.3307ZM22.3207 29.13C22.8807 29.13 23.3807 29.005 23.8207 28.755C24.2607 28.495 24.6107 28.135 24.8707 27.675C25.1307 27.205 25.2607 26.665 25.2607 26.055C25.2607 25.445 25.1307 24.91 24.8707 24.45C24.6107 23.99 24.2607 23.63 23.8207 23.37C23.3807 23.11 22.8807 22.98 22.3207 22.98C21.7607 22.98 21.2557 23.11 20.8057 23.37C20.3657 23.63 20.0157 23.99 19.7557 24.45C19.5057 24.91 19.3807 25.445 19.3807 26.055C19.3807 26.665 19.5057 27.205 19.7557 27.675C20.0157 28.135 20.3657 28.495 20.8057 28.755C21.2557 29.005 21.7607 29.13 22.3207 29.13ZM31.8417 30.075C31.0217 30.075 30.3017 29.905 29.6817 29.565C29.0617 29.215 28.5767 28.74 28.2267 28.14C27.8767 27.53 27.7017 26.835 27.7017 26.055C27.7017 25.275 27.8667 24.585 28.1967 23.985C28.5367 23.385 28.9967 22.915 29.5767 22.575C30.1667 22.225 30.8267 22.05 31.5567 22.05C32.2967 22.05 32.9517 22.22 33.5217 22.56C34.1017 22.89 34.5567 23.36 34.8867 23.97C35.2167 24.57 35.3817 25.265 35.3817 26.055C35.3817 26.105 35.3767 26.16 35.3667 26.22C35.3667 26.27 35.3667 26.325 35.3667 26.385H28.5117V25.59H34.7967L34.3767 25.905C34.3767 25.335 34.2517 24.83 34.0017 24.39C33.7617 23.94 33.4317 23.59 33.0117 23.34C32.5917 23.09 32.1067 22.965 31.5567 22.965C31.0167 22.965 30.5317 23.09 30.1017 23.34C29.6717 23.59 29.3367 23.94 29.0967 24.39C28.8567 24.84 28.7367 25.355 28.7367 25.935V26.1C28.7367 26.7 28.8667 27.23 29.1267 27.69C29.3967 28.14 29.7667 28.495 30.2367 28.755C30.7167 29.005 31.2617 29.13 31.8717 29.13C32.3517 29.13 32.7967 29.045 33.2067 28.875C33.6267 28.705 33.9867 28.445 34.2867 28.095L34.8867 28.785C34.5367 29.205 34.0967 29.525 33.5667 29.745C33.0467 29.965 32.4717 30.075 31.8417 30.075ZM37.5495 30V22.125H38.5695V24.27L38.4645 23.895C38.6845 23.295 39.0545 22.84 39.5745 22.53C40.0945 22.21 40.7395 22.05 41.5095 22.05V23.085C41.4695 23.085 41.4295 23.085 41.3895 23.085C41.3495 23.075 41.3095 23.07 41.2695 23.07C40.4395 23.07 39.7895 23.325 39.3195 23.835C38.8495 24.335 38.6145 25.05 38.6145 25.98V30H37.5495ZM43.4528 30V22.125H44.5178V30H43.4528ZM43.9928 20.385C43.7728 20.385 43.5878 20.31 43.4378 20.16C43.2878 20.01 43.2128 19.83 43.2128 19.62C43.2128 19.41 43.2878 19.235 43.4378 19.095C43.5878 18.945 43.7728 18.87 43.9928 18.87C44.2128 18.87 44.3978 18.94 44.5478 19.08C44.6978 19.22 44.7728 19.395 44.7728 19.605C44.7728 19.825 44.6978 20.01 44.5478 20.16C44.4078 20.31 44.2228 20.385 43.9928 20.385ZM50.8261 30.075C50.0061 30.075 49.2861 29.905 48.6661 29.565C48.0461 29.215 47.5611 28.74 47.2111 28.14C46.8611 27.53 46.6861 26.835 46.6861 26.055C46.6861 25.275 46.8511 24.585 47.1811 23.985C47.5211 23.385 47.9811 22.915 48.5611 22.575C49.1511 22.225 49.8111 22.05 50.5411 22.05C51.2811 22.05 51.9361 22.22 52.5061 22.56C53.0861 22.89 53.5411 23.36 53.8711 23.97C54.2011 24.57 54.3661 25.265 54.3661 26.055C54.3661 26.105 54.3611 26.16 54.3511 26.22C54.3511 26.27 54.3511 26.325 54.3511 26.385H47.4961V25.59H53.7811L53.3611 25.905C53.3611 25.335 53.2361 24.83 52.9861 24.39C52.7461 23.94 52.4161 23.59 51.9961 23.34C51.5761 23.09 51.0911 22.965 50.5411 22.965C50.0011 22.965 49.5161 23.09 49.0861 23.34C48.6561 23.59 48.3211 23.94 48.0811 24.39C47.8411 24.84 47.7211 25.355 47.7211 25.935V26.1C47.7211 26.7 47.8511 27.23 48.1111 27.69C48.3811 28.14 48.7511 28.495 49.2211 28.755C49.7011 29.005 50.2461 29.13 50.8561 29.13C51.3361 29.13 51.7811 29.045 52.1911 28.875C52.6111 28.705 52.9711 28.445 53.2711 28.095L53.8711 28.785C53.5211 29.205 53.0811 29.525 52.5511 29.745C52.0311 29.965 51.4561 30.075 50.8261 30.075ZM60.5538 22.05C61.1938 22.05 61.7538 22.175 62.2338 22.425C62.7238 22.665 63.1038 23.035 63.3738 23.535C63.6538 24.035 63.7938 24.665 63.7938 25.425V30H62.7288V25.53C62.7288 24.7 62.5188 24.075 62.0988 23.655C61.6888 23.225 61.1088 23.01 60.3588 23.01C59.7988 23.01 59.3088 23.125 58.8888 23.355C58.4788 23.575 58.1588 23.9 57.9288 24.33C57.7088 24.75 57.5988 25.26 57.5988 25.86V30H56.5338V22.125H57.5538V24.285L57.3888 23.88C57.6388 23.31 58.0388 22.865 58.5888 22.545C59.1388 22.215 59.7938 22.05 60.5538 22.05ZM69.9405 30.075C69.1605 30.075 68.4605 29.905 67.8405 29.565C67.2305 29.215 66.7505 28.74 66.4005 28.14C66.0505 27.53 65.8755 26.835 65.8755 26.055C65.8755 25.265 66.0505 24.57 66.4005 23.97C66.7505 23.37 67.2305 22.9 67.8405 22.56C68.4605 22.22 69.1605 22.05 69.9405 22.05C70.6105 22.05 71.2155 22.18 71.7555 22.44C72.2955 22.7 72.7205 23.09 73.0305 23.61L72.2355 24.15C71.9655 23.75 71.6305 23.455 71.2305 23.265C70.8305 23.075 70.3955 22.98 69.9255 22.98C69.3655 22.98 68.8605 23.11 68.4105 23.37C67.9605 23.62 67.6055 23.975 67.3455 24.435C67.0855 24.895 66.9555 25.435 66.9555 26.055C66.9555 26.675 67.0855 27.215 67.3455 27.675C67.6055 28.135 67.9605 28.495 68.4105 28.755C68.8605 29.005 69.3655 29.13 69.9255 29.13C70.3955 29.13 70.8305 29.035 71.2305 28.845C71.6305 28.655 71.9655 28.365 72.2355 27.975L73.0305 28.515C72.7205 29.025 72.2955 29.415 71.7555 29.685C71.2155 29.945 70.6105 30.075 69.9405 30.075ZM78.3359 30.075C77.5159 30.075 76.7959 29.905 76.1759 29.565C75.5559 29.215 75.0709 28.74 74.7209 28.14C74.3709 27.53 74.1959 26.835 74.1959 26.055C74.1959 25.275 74.3609 24.585 74.6909 23.985C75.0309 23.385 75.4909 22.915 76.0709 22.575C76.6609 22.225 77.3209 22.05 78.0509 22.05C78.7909 22.05 79.4459 22.22 80.0159 22.56C80.5959 22.89 81.0509 23.36 81.3809 23.97C81.7109 24.57 81.8759 25.265 81.8759 26.055C81.8759 26.105 81.8709 26.16 81.8609 26.22C81.8609 26.27 81.8609 26.325 81.8609 26.385H75.0059V25.59H81.2909L80.8709 25.905C80.8709 25.335 80.7459 24.83 80.4959 24.39C80.2559 23.94 79.9259 23.59 79.5059 23.34C79.0859 23.09 78.6009 22.965 78.0509 22.965C77.5109 22.965 77.0259 23.09 76.5959 23.34C76.1659 23.59 75.8309 23.94 75.5909 24.39C75.3509 24.84 75.2309 25.355 75.2309 25.935V26.1C75.2309 26.7 75.3609 27.23 75.6209 27.69C75.8909 28.14 76.2609 28.495 76.7309 28.755C77.2109 29.005 77.7559 29.13 78.3659 29.13C78.8459 29.13 79.2909 29.045 79.7009 28.875C80.1209 28.705 80.4809 28.445 80.7809 28.095L81.3809 28.785C81.0309 29.205 80.5909 29.525 80.0609 29.745C79.5409 29.965 78.9659 30.075 78.3359 30.075ZM91.1794 30.075C90.4194 30.075 89.7344 29.905 89.1244 29.565C88.5244 29.215 88.0494 28.74 87.6994 28.14C87.3494 27.53 87.1744 26.835 87.1744 26.055C87.1744 25.265 87.3494 24.57 87.6994 23.97C88.0494 23.37 88.5244 22.9 89.1244 22.56C89.7244 22.22 90.4094 22.05 91.1794 22.05C91.9594 22.05 92.6494 22.22 93.2494 22.56C93.8594 22.9 94.3344 23.37 94.6744 23.97C95.0244 24.57 95.1994 25.265 95.1994 26.055C95.1994 26.835 95.0244 27.53 94.6744 28.14C94.3344 28.74 93.8594 29.215 93.2494 29.565C92.6394 29.905 91.9494 30.075 91.1794 30.075ZM91.1794 29.13C91.7494 29.13 92.2544 29.005 92.6944 28.755C93.1344 28.495 93.4794 28.135 93.7294 27.675C93.9894 27.205 94.1194 26.665 94.1194 26.055C94.1194 25.435 93.9894 24.895 93.7294 24.435C93.4794 23.975 93.1344 23.62 92.6944 23.37C92.2544 23.11 91.7544 22.98 91.1944 22.98C90.6344 22.98 90.1344 23.11 89.6944 23.37C89.2544 23.62 88.9044 23.975 88.6444 24.435C88.3844 24.895 88.2544 25.435 88.2544 26.055C88.2544 26.665 88.3844 27.205 88.6444 27.675C88.9044 28.135 89.2544 28.495 89.6944 28.755C90.1344 29.005 90.6294 29.13 91.1794 29.13ZM101.394 22.05C102.034 22.05 102.594 22.175 103.074 22.425C103.564 22.665 103.944 23.035 104.214 23.535C104.494 24.035 104.634 24.665 104.634 25.425V30H103.569V25.53C103.569 24.7 103.359 24.075 102.939 23.655C102.529 23.225 101.949 23.01 101.199 23.01C100.639 23.01 100.149 23.125 99.7287 23.355C99.3187 23.575 98.9987 23.9 98.7687 24.33C98.5487 24.75 98.4387 25.26 98.4387 25.86V30H97.3737V22.125H98.3937V24.285L98.2287 23.88C98.4787 23.31 98.8787 22.865 99.4287 22.545C99.9787 22.215 100.634 22.05 101.394 22.05ZM116.371 30V28.26L116.326 27.975V25.065C116.326 24.395 116.136 23.88 115.756 23.52C115.386 23.16 114.831 22.98 114.091 22.98C113.581 22.98 113.096 23.065 112.636 23.235C112.176 23.405 111.786 23.63 111.466 23.91L110.986 23.115C111.386 22.775 111.866 22.515 112.426 22.335C112.986 22.145 113.576 22.05 114.196 22.05C115.216 22.05 116.001 22.305 116.551 22.815C117.111 23.315 117.391 24.08 117.391 25.11V30H116.371ZM113.656 30.075C113.066 30.075 112.551 29.98 112.111 29.79C111.681 29.59 111.351 29.32 111.121 28.98C110.891 28.63 110.776 28.23 110.776 27.78C110.776 27.37 110.871 27 111.061 26.67C111.261 26.33 111.581 26.06 112.021 25.86C112.471 25.65 113.071 25.545 113.821 25.545H116.536V26.34H113.851C113.091 26.34 112.561 26.475 112.261 26.745C111.971 27.015 111.826 27.35 111.826 27.75C111.826 28.2 112.001 28.56 112.351 28.83C112.701 29.1 113.191 29.235 113.821 29.235C114.421 29.235 114.936 29.1 115.366 28.83C115.806 28.55 116.126 28.15 116.326 27.63L116.566 28.365C116.366 28.885 116.016 29.3 115.516 29.61C115.026 29.92 114.406 30.075 113.656 30.075ZM124.304 22.05C124.944 22.05 125.504 22.175 125.984 22.425C126.474 22.665 126.854 23.035 127.124 23.535C127.404 24.035 127.544 24.665 127.544 25.425V30H126.479V25.53C126.479 24.7 126.269 24.075 125.849 23.655C125.439 23.225 124.859 23.01 124.109 23.01C123.549 23.01 123.059 23.125 122.639 23.355C122.229 23.575 121.909 23.9 121.679 24.33C121.459 24.75 121.349 25.26 121.349 25.86V30H120.284V22.125H121.304V24.285L121.139 23.88C121.389 23.31 121.789 22.865 122.339 22.545C122.889 22.215 123.544 22.05 124.304 22.05ZM130.334 32.985C129.964 32.985 129.609 32.925 129.269 32.805C128.939 32.685 128.654 32.505 128.414 32.265L128.909 31.47C129.109 31.66 129.324 31.805 129.554 31.905C129.794 32.015 130.059 32.07 130.349 32.07C130.699 32.07 130.999 31.97 131.249 31.77C131.509 31.58 131.754 31.24 131.984 30.75L132.494 29.595L132.614 29.43L135.854 22.125H136.904L132.959 30.945C132.739 31.455 132.494 31.86 132.224 32.16C131.964 32.46 131.679 32.67 131.369 32.79C131.059 32.92 130.714 32.985 130.334 32.985ZM132.434 30.225L128.804 22.125H129.914L133.124 29.355L132.434 30.225ZM4.62 48.075C3.87 48.075 3.195 47.905 2.595 47.565C2.005 47.225 1.54 46.755 1.2 46.155C0.86 45.545 0.69 44.845 0.69 44.055C0.69 43.255 0.86 42.555 1.2 41.955C1.54 41.355 2.005 40.89 2.595 40.56C3.195 40.22 3.87 40.05 4.62 40.05C5.31 40.05 5.925 40.205 6.465 40.515C7.015 40.825 7.45 41.28 7.77 41.88C8.1 42.47 8.265 43.195 8.265 44.055C8.265 44.905 8.105 45.63 7.785 46.23C7.465 46.83 7.03 47.29 6.48 47.61C5.94 47.92 5.32 48.075 4.62 48.075ZM4.695 47.13C5.255 47.13 5.755 47.005 6.195 46.755C6.645 46.495 6.995 46.135 7.245 45.675C7.505 45.205 7.635 44.665 7.635 44.055C7.635 43.435 7.505 42.895 7.245 42.435C6.995 41.975 6.645 41.62 6.195 41.37C5.755 41.11 5.255 40.98 4.695 40.98C4.145 40.98 3.65 41.11 3.21 41.37C2.77 41.62 2.42 41.975 2.16 42.435C1.9 42.895 1.77 43.435 1.77 44.055C1.77 44.665 1.9 45.205 2.16 45.675C2.42 46.135 2.77 46.495 3.21 46.755C3.65 47.005 4.145 47.13 4.695 47.13ZM7.665 48V45.63L7.77 44.04L7.62 42.45V36.87H8.685V48H7.665ZM14.996 48.075C14.176 48.075 13.456 47.905 12.836 47.565C12.216 47.215 11.731 46.74 11.381 46.14C11.031 45.53 10.856 44.835 10.856 44.055C10.856 43.275 11.021 42.585 11.351 41.985C11.691 41.385 12.151 40.915 12.731 40.575C13.321 40.225 13.981 40.05 14.711 40.05C15.451 40.05 16.106 40.22 16.676 40.56C17.256 40.89 17.711 41.36 18.041 41.97C18.371 42.57 18.536 43.265 18.536 44.055C18.536 44.105 18.531 44.16 18.521 44.22C18.521 44.27 18.521 44.325 18.521 44.385H11.666V43.59H17.951L17.531 43.905C17.531 43.335 17.406 42.83 17.156 42.39C16.916 41.94 16.586 41.59 16.166 41.34C15.746 41.09 15.261 40.965 14.711 40.965C14.171 40.965 13.686 41.09 13.256 41.34C12.826 41.59 12.491 41.94 12.251 42.39C12.011 42.84 11.891 43.355 11.891 43.935V44.1C11.891 44.7 12.021 45.23 12.281 45.69C12.551 46.14 12.921 46.495 13.391 46.755C13.871 47.005 14.416 47.13 15.026 47.13C15.506 47.13 15.951 47.045 16.361 46.875C16.781 46.705 17.141 46.445 17.441 46.095L18.041 46.785C17.691 47.205 17.251 47.525 16.721 47.745C16.201 47.965 15.626 48.075 14.996 48.075ZM22.5823 48L19.0873 40.125H20.1973L23.4073 47.43H22.8823L26.1373 40.125H27.1873L23.6773 48H22.5823ZM28.6871 48V40.125H29.7521V48H28.6871ZM29.2271 38.385C29.0071 38.385 28.8221 38.31 28.6721 38.16C28.5221 38.01 28.4471 37.83 28.4471 37.62C28.4471 37.41 28.5221 37.235 28.6721 37.095C28.8221 36.945 29.0071 36.87 29.2271 36.87C29.4471 36.87 29.6321 36.94 29.7821 37.08C29.9321 37.22 30.0071 37.395 30.0071 37.605C30.0071 37.825 29.9321 38.01 29.7821 38.16C29.6421 38.31 29.4571 38.385 29.2271 38.385ZM35.9855 48.075C35.2055 48.075 34.5055 47.905 33.8855 47.565C33.2755 47.215 32.7955 46.74 32.4455 46.14C32.0955 45.53 31.9205 44.835 31.9205 44.055C31.9205 43.265 32.0955 42.57 32.4455 41.97C32.7955 41.37 33.2755 40.9 33.8855 40.56C34.5055 40.22 35.2055 40.05 35.9855 40.05C36.6555 40.05 37.2605 40.18 37.8005 40.44C38.3405 40.7 38.7655 41.09 39.0755 41.61L38.2805 42.15C38.0105 41.75 37.6755 41.455 37.2755 41.265C36.8755 41.075 36.4405 40.98 35.9705 40.98C35.4105 40.98 34.9055 41.11 34.4555 41.37C34.0055 41.62 33.6505 41.975 33.3905 42.435C33.1305 42.895 33.0005 43.435 33.0005 44.055C33.0005 44.675 33.1305 45.215 33.3905 45.675C33.6505 46.135 34.0055 46.495 34.4555 46.755C34.9055 47.005 35.4105 47.13 35.9705 47.13C36.4405 47.13 36.8755 47.035 37.2755 46.845C37.6755 46.655 38.0105 46.365 38.2805 45.975L39.0755 46.515C38.7655 47.025 38.3405 47.415 37.8005 47.685C37.2605 47.945 36.6555 48.075 35.9855 48.075ZM44.3808 48.075C43.5608 48.075 42.8408 47.905 42.2208 47.565C41.6008 47.215 41.1158 46.74 40.7658 46.14C40.4158 45.53 40.2408 44.835 40.2408 44.055C40.2408 43.275 40.4058 42.585 40.7358 41.985C41.0758 41.385 41.5358 40.915 42.1158 40.575C42.7058 40.225 43.3658 40.05 44.0958 40.05C44.8358 40.05 45.4908 40.22 46.0608 40.56C46.6408 40.89 47.0958 41.36 47.4258 41.97C47.7558 42.57 47.9208 43.265 47.9208 44.055C47.9208 44.105 47.9158 44.16 47.9058 44.22C47.9058 44.27 47.9058 44.325 47.9058 44.385H41.0508V43.59H47.3358L46.9158 43.905C46.9158 43.335 46.7908 42.83 46.5408 42.39C46.3008 41.94 45.9708 41.59 45.5508 41.34C45.1308 41.09 44.6458 40.965 44.0958 40.965C43.5558 40.965 43.0708 41.09 42.6408 41.34C42.2108 41.59 41.8758 41.94 41.6358 42.39C41.3958 42.84 41.2758 43.355 41.2758 43.935V44.1C41.2758 44.7 41.4058 45.23 41.6658 45.69C41.9358 46.14 42.3058 46.495 42.7758 46.755C43.2558 47.005 43.8008 47.13 44.4108 47.13C44.8908 47.13 45.3358 47.045 45.7458 46.875C46.1658 46.705 46.5258 46.445 46.8258 46.095L47.4258 46.785C47.0758 47.205 46.6358 47.525 46.1058 47.745C45.5858 47.965 45.0108 48.075 44.3808 48.075ZM55.6193 48L52.6493 40.125H53.6693L56.3693 47.43H55.9043L58.6793 40.125H59.5943L62.3393 47.43H61.8743L64.6193 40.125H65.5943L62.6093 48H61.6043L58.9643 41.13H59.2793L56.6243 48H55.6193ZM67.1979 48V40.125H68.2629V48H67.1979ZM67.7379 38.385C67.5179 38.385 67.3329 38.31 67.1829 38.16C67.0329 38.01 66.9579 37.83 66.9579 37.62C66.9579 37.41 67.0329 37.235 67.1829 37.095C67.3329 36.945 67.5179 36.87 67.7379 36.87C67.9579 36.87 68.1429 36.94 68.2929 37.08C68.4429 37.22 68.5179 37.395 68.5179 37.605C68.5179 37.825 68.4429 38.01 68.2929 38.16C68.1529 38.31 67.9679 38.385 67.7379 38.385ZM73.7162 48.075C72.9762 48.075 72.4062 47.875 72.0062 47.475C71.6062 47.075 71.4062 46.51 71.4062 45.78V38.385H72.4712V45.72C72.4712 46.18 72.5862 46.535 72.8162 46.785C73.0562 47.035 73.3962 47.16 73.8362 47.16C74.3062 47.16 74.6962 47.025 75.0062 46.755L75.3812 47.52C75.1712 47.71 74.9162 47.85 74.6162 47.94C74.3262 48.03 74.0262 48.075 73.7162 48.075ZM69.9962 41.01V40.125H74.8712V41.01H69.9962ZM81.34 40.05C81.98 40.05 82.54 40.175 83.02 40.425C83.51 40.665 83.89 41.035 84.16 41.535C84.44 42.035 84.58 42.665 84.58 43.425V48H83.515V43.53C83.515 42.7 83.305 42.075 82.885 41.655C82.475 41.225 81.895 41.01 81.145 41.01C80.585 41.01 80.095 41.125 79.675 41.355C79.265 41.575 78.945 41.9 78.715 42.33C78.495 42.75 78.385 43.26 78.385 43.86V48H77.32V36.87H78.385V42.285L78.175 41.88C78.425 41.31 78.825 40.865 79.375 40.545C79.925 40.215 80.58 40.05 81.34 40.05ZM94.5925 48.075C93.8325 48.075 93.1475 47.905 92.5375 47.565C91.9375 47.215 91.4625 46.74 91.1125 46.14C90.7625 45.53 90.5875 44.835 90.5875 44.055C90.5875 43.265 90.7625 42.57 91.1125 41.97C91.4625 41.37 91.9375 40.9 92.5375 40.56C93.1375 40.22 93.8225 40.05 94.5925 40.05C95.3725 40.05 96.0625 40.22 96.6625 40.56C97.2725 40.9 97.7475 41.37 98.0875 41.97C98.4375 42.57 98.6125 43.265 98.6125 44.055C98.6125 44.835 98.4375 45.53 98.0875 46.14C97.7475 46.74 97.2725 47.215 96.6625 47.565C96.0525 47.905 95.3625 48.075 94.5925 48.075ZM94.5925 47.13C95.1625 47.13 95.6675 47.005 96.1075 46.755C96.5475 46.495 96.8925 46.135 97.1425 45.675C97.4025 45.205 97.5325 44.665 97.5325 44.055C97.5325 43.435 97.4025 42.895 97.1425 42.435C96.8925 41.975 96.5475 41.62 96.1075 41.37C95.6675 41.11 95.1675 40.98 94.6075 40.98C94.0475 40.98 93.5475 41.11 93.1075 41.37C92.6675 41.62 92.3175 41.975 92.0575 42.435C91.7975 42.895 91.6675 43.435 91.6675 44.055C91.6675 44.665 91.7975 45.205 92.0575 45.675C92.3175 46.135 92.6675 46.495 93.1075 46.755C93.5475 47.005 94.0425 47.13 94.5925 47.13ZM104.042 48.075C103.372 48.075 102.787 47.95 102.287 47.7C101.787 47.45 101.397 47.075 101.117 46.575C100.847 46.075 100.712 45.45 100.712 44.7V40.125H101.777V44.58C101.777 45.42 101.982 46.055 102.392 46.485C102.812 46.905 103.397 47.115 104.147 47.115C104.697 47.115 105.172 47.005 105.572 46.785C105.982 46.555 106.292 46.225 106.502 45.795C106.722 45.365 106.832 44.85 106.832 44.25V40.125H107.897V48H106.877V45.84L107.042 46.23C106.792 46.81 106.402 47.265 105.872 47.595C105.352 47.915 104.742 48.075 104.042 48.075ZM110.865 48V40.125H111.885V42.27L111.78 41.895C112 41.295 112.37 40.84 112.89 40.53C113.41 40.21 114.055 40.05 114.825 40.05V41.085C114.785 41.085 114.745 41.085 114.705 41.085C114.665 41.075 114.625 41.07 114.585 41.07C113.755 41.07 113.105 41.325 112.635 41.835C112.165 42.335 111.93 43.05 111.93 43.98V48H110.865ZM125.746 48V46.26L125.701 45.975V43.065C125.701 42.395 125.511 41.88 125.131 41.52C124.761 41.16 124.206 40.98 123.466 40.98C122.956 40.98 122.471 41.065 122.011 41.235C121.551 41.405 121.161 41.63 120.841 41.91L120.361 41.115C120.761 40.775 121.241 40.515 121.801 40.335C122.361 40.145 122.951 40.05 123.571 40.05C124.591 40.05 125.376 40.305 125.926 40.815C126.486 41.315 126.766 42.08 126.766 43.11V48H125.746ZM123.031 48.075C122.441 48.075 121.926 47.98 121.486 47.79C121.056 47.59 120.726 47.32 120.496 46.98C120.266 46.63 120.151 46.23 120.151 45.78C120.151 45.37 120.246 45 120.436 44.67C120.636 44.33 120.956 44.06 121.396 43.86C121.846 43.65 122.446 43.545 123.196 43.545H125.911V44.34H123.226C122.466 44.34 121.936 44.475 121.636 44.745C121.346 45.015 121.201 45.35 121.201 45.75C121.201 46.2 121.376 46.56 121.726 46.83C122.076 47.1 122.566 47.235 123.196 47.235C123.796 47.235 124.311 47.1 124.741 46.83C125.181 46.55 125.501 46.15 125.701 45.63L125.941 46.365C125.741 46.885 125.391 47.3 124.891 47.61C124.401 47.92 123.781 48.075 123.031 48.075ZM133.724 48.075C133.044 48.075 132.429 47.92 131.879 47.61C131.329 47.29 130.889 46.835 130.559 46.245C130.239 45.645 130.079 44.915 130.079 44.055C130.079 43.195 130.239 42.47 130.559 41.88C130.879 41.28 131.314 40.825 131.864 40.515C132.414 40.205 133.034 40.05 133.724 40.05C134.474 40.05 135.144 40.22 135.734 40.56C136.334 40.89 136.804 41.36 137.144 41.97C137.484 42.57 137.654 43.265 137.654 44.055C137.654 44.855 137.484 45.555 137.144 46.155C136.804 46.755 136.334 47.225 135.734 47.565C135.144 47.905 134.474 48.075 133.724 48.075ZM129.659 50.91V40.125H130.679V42.495L130.574 44.07L130.724 45.66V50.91H129.659ZM133.649 47.13C134.209 47.13 134.709 47.005 135.149 46.755C135.589 46.495 135.939 46.135 136.199 45.675C136.459 45.205 136.589 44.665 136.589 44.055C136.589 43.445 136.459 42.91 136.199 42.45C135.939 41.99 135.589 41.63 135.149 41.37C134.709 41.11 134.209 40.98 133.649 40.98C133.089 40.98 132.584 41.11 132.134 41.37C131.694 41.63 131.344 41.99 131.084 42.45C130.834 42.91 130.709 43.445 130.709 44.055C130.709 44.665 130.834 45.205 131.084 45.675C131.344 46.135 131.694 46.495 132.134 46.755C132.584 47.005 133.089 47.13 133.649 47.13ZM143.89 48.075C143.21 48.075 142.595 47.92 142.045 47.61C141.495 47.29 141.055 46.835 140.725 46.245C140.405 45.645 140.245 44.915 140.245 44.055C140.245 43.195 140.405 42.47 140.725 41.88C141.045 41.28 141.48 40.825 142.03 40.515C142.58 40.205 143.2 40.05 143.89 40.05C144.64 40.05 145.31 40.22 145.9 40.56C146.5 40.89 146.97 41.36 147.31 41.97C147.65 42.57 147.82 43.265 147.82 44.055C147.82 44.855 147.65 45.555 147.31 46.155C146.97 46.755 146.5 47.225 145.9 47.565C145.31 47.905 144.64 48.075 143.89 48.075ZM139.825 50.91V40.125H140.845V42.495L140.74 44.07L140.89 45.66V50.91H139.825ZM143.815 47.13C144.375 47.13 144.875 47.005 145.315 46.755C145.755 46.495 146.105 46.135 146.365 45.675C146.625 45.205 146.755 44.665 146.755 44.055C146.755 43.445 146.625 42.91 146.365 42.45C146.105 41.99 145.755 41.63 145.315 41.37C144.875 41.11 144.375 40.98 143.815 40.98C143.255 40.98 142.75 41.11 142.3 41.37C141.86 41.63 141.51 41.99 141.25 42.45C141 42.91 140.875 43.445 140.875 44.055C140.875 44.665 141 45.205 141.25 45.675C141.51 46.135 141.86 46.495 142.3 46.755C142.75 47.005 143.255 47.13 143.815 47.13ZM149.317 40.53L149.977 37.77L150.097 38.4C149.867 38.4 149.672 38.33 149.512 38.19C149.362 38.04 149.287 37.845 149.287 37.605C149.287 37.365 149.362 37.17 149.512 37.02C149.672 36.87 149.862 36.795 150.082 36.795C150.312 36.795 150.497 36.875 150.637 37.035C150.787 37.185 150.862 37.375 150.862 37.605C150.862 37.685 150.857 37.765 150.847 37.845C150.837 37.925 150.817 38.015 150.787 38.115C150.767 38.205 150.732 38.32 150.682 38.46L150.037 40.53H149.317ZM155.021 48.075C154.371 48.075 153.756 47.985 153.176 47.805C152.596 47.615 152.141 47.38 151.811 47.1L152.291 46.26C152.611 46.5 153.021 46.71 153.521 46.89C154.021 47.06 154.546 47.145 155.096 47.145C155.846 47.145 156.386 47.03 156.716 46.8C157.046 46.56 157.211 46.245 157.211 45.855C157.211 45.565 157.116 45.34 156.926 45.18C156.746 45.01 156.506 44.885 156.206 44.805C155.906 44.715 155.571 44.64 155.201 44.58C154.831 44.52 154.461 44.45 154.091 44.37C153.731 44.29 153.401 44.175 153.101 44.025C152.801 43.865 152.556 43.65 152.366 43.38C152.186 43.11 152.096 42.75 152.096 42.3C152.096 41.87 152.216 41.485 152.456 41.145C152.696 40.805 153.046 40.54 153.506 40.35C153.976 40.15 154.546 40.05 155.216 40.05C155.726 40.05 156.236 40.12 156.746 40.26C157.256 40.39 157.676 40.565 158.006 40.785L157.541 41.64C157.191 41.4 156.816 41.23 156.416 41.13C156.016 41.02 155.616 40.965 155.216 40.965C154.506 40.965 153.981 41.09 153.641 41.34C153.311 41.58 153.146 41.89 153.146 42.27C153.146 42.57 153.236 42.805 153.416 42.975C153.606 43.145 153.851 43.28 154.151 43.38C154.461 43.47 154.796 43.545 155.156 43.605C155.526 43.665 155.891 43.74 156.251 43.83C156.621 43.91 156.956 44.025 157.256 44.175C157.566 44.315 157.811 44.52 157.991 44.79C158.181 45.05 158.276 45.395 158.276 45.825C158.276 46.285 158.146 46.685 157.886 47.025C157.636 47.355 157.266 47.615 156.776 47.805C156.296 47.985 155.711 48.075 155.021 48.075ZM1.485 66V58.125H2.505V60.27L2.4 59.895C2.62 59.295 2.99 58.84 3.51 58.53C4.03 58.21 4.675 58.05 5.445 58.05V59.085C5.405 59.085 5.365 59.085 5.325 59.085C5.285 59.075 5.245 59.07 5.205 59.07C4.375 59.07 3.725 59.325 3.255 59.835C2.785 60.335 2.55 61.05 2.55 61.98V66H1.485ZM10.6601 66.075C9.84008 66.075 9.12008 65.905 8.50008 65.565C7.88008 65.215 7.39508 64.74 7.04508 64.14C6.69508 63.53 6.52008 62.835 6.52008 62.055C6.52008 61.275 6.68508 60.585 7.01508 59.985C7.35508 59.385 7.81508 58.915 8.39508 58.575C8.98508 58.225 9.64508 58.05 10.3751 58.05C11.1151 58.05 11.7701 58.22 12.3401 58.56C12.9201 58.89 13.3751 59.36 13.7051 59.97C14.0351 60.57 14.2001 61.265 14.2001 62.055C14.2001 62.105 14.1951 62.16 14.1851 62.22C14.1851 62.27 14.1851 62.325 14.1851 62.385H7.33008V61.59H13.6151L13.1951 61.905C13.1951 61.335 13.0701 60.83 12.8201 60.39C12.5801 59.94 12.2501 59.59 11.8301 59.34C11.4101 59.09 10.9251 58.965 10.3751 58.965C9.83508 58.965 9.35008 59.09 8.92008 59.34C8.49008 59.59 8.15508 59.94 7.91508 60.39C7.67508 60.84 7.55508 61.355 7.55508 61.935V62.1C7.55508 62.7 7.68508 63.23 7.94508 63.69C8.21508 64.14 8.58508 64.495 9.05508 64.755C9.53508 65.005 10.0801 65.13 10.6901 65.13C11.1701 65.13 11.6151 65.045 12.0251 64.875C12.4451 64.705 12.8051 64.445 13.1051 64.095L13.7051 64.785C13.3551 65.205 12.9151 65.525 12.3851 65.745C11.8651 65.965 11.2901 66.075 10.6601 66.075ZM18.4828 66.075C17.8328 66.075 17.2178 65.985 16.6378 65.805C16.0578 65.615 15.6028 65.38 15.2728 65.1L15.7528 64.26C16.0728 64.5 16.4828 64.71 16.9828 64.89C17.4828 65.06 18.0078 65.145 18.5578 65.145C19.3078 65.145 19.8478 65.03 20.1778 64.8C20.5078 64.56 20.6728 64.245 20.6728 63.855C20.6728 63.565 20.5778 63.34 20.3878 63.18C20.2078 63.01 19.9678 62.885 19.6678 62.805C19.3678 62.715 19.0328 62.64 18.6628 62.58C18.2928 62.52 17.9228 62.45 17.5528 62.37C17.1928 62.29 16.8628 62.175 16.5628 62.025C16.2628 61.865 16.0178 61.65 15.8278 61.38C15.6478 61.11 15.5578 60.75 15.5578 60.3C15.5578 59.87 15.6778 59.485 15.9178 59.145C16.1578 58.805 16.5078 58.54 16.9678 58.35C17.4378 58.15 18.0078 58.05 18.6778 58.05C19.1878 58.05 19.6978 58.12 20.2078 58.26C20.7178 58.39 21.1378 58.565 21.4678 58.785L21.0028 59.64C20.6528 59.4 20.2778 59.23 19.8778 59.13C19.4778 59.02 19.0778 58.965 18.6778 58.965C17.9678 58.965 17.4428 59.09 17.1028 59.34C16.7728 59.58 16.6078 59.89 16.6078 60.27C16.6078 60.57 16.6978 60.805 16.8778 60.975C17.0678 61.145 17.3128 61.28 17.6128 61.38C17.9228 61.47 18.2578 61.545 18.6178 61.605C18.9878 61.665 19.3528 61.74 19.7128 61.83C20.0828 61.91 20.4178 62.025 20.7178 62.175C21.0278 62.315 21.2728 62.52 21.4528 62.79C21.6428 63.05 21.7378 63.395 21.7378 63.825C21.7378 64.285 21.6078 64.685 21.3478 65.025C21.0978 65.355 20.7278 65.615 20.2378 65.805C19.7578 65.985 19.1728 66.075 18.4828 66.075ZM27.757 66.075C27.077 66.075 26.462 65.92 25.912 65.61C25.362 65.29 24.922 64.835 24.592 64.245C24.272 63.645 24.112 62.915 24.112 62.055C24.112 61.195 24.272 60.47 24.592 59.88C24.912 59.28 25.347 58.825 25.897 58.515C26.447 58.205 27.067 58.05 27.757 58.05C28.507 58.05 29.177 58.22 29.767 58.56C30.367 58.89 30.837 59.36 31.177 59.97C31.517 60.57 31.687 61.265 31.687 62.055C31.687 62.855 31.517 63.555 31.177 64.155C30.837 64.755 30.367 65.225 29.767 65.565C29.177 65.905 28.507 66.075 27.757 66.075ZM23.692 68.91V58.125H24.712V60.495L24.607 62.07L24.757 63.66V68.91H23.692ZM27.682 65.13C28.242 65.13 28.742 65.005 29.182 64.755C29.622 64.495 29.972 64.135 30.232 63.675C30.492 63.205 30.622 62.665 30.622 62.055C30.622 61.445 30.492 60.91 30.232 60.45C29.972 59.99 29.622 59.63 29.182 59.37C28.742 59.11 28.242 58.98 27.682 58.98C27.122 58.98 26.617 59.11 26.167 59.37C25.727 59.63 25.377 59.99 25.117 60.45C24.867 60.91 24.742 61.445 24.742 62.055C24.742 62.665 24.867 63.205 25.117 63.675C25.377 64.135 25.727 64.495 26.167 64.755C26.617 65.005 27.122 65.13 27.682 65.13ZM37.068 66.075C36.308 66.075 35.623 65.905 35.013 65.565C34.413 65.215 33.938 64.74 33.588 64.14C33.238 63.53 33.063 62.835 33.063 62.055C33.063 61.265 33.238 60.57 33.588 59.97C33.938 59.37 34.413 58.9 35.013 58.56C35.613 58.22 36.298 58.05 37.068 58.05C37.848 58.05 38.538 58.22 39.138 58.56C39.748 58.9 40.223 59.37 40.563 59.97C40.913 60.57 41.088 61.265 41.088 62.055C41.088 62.835 40.913 63.53 40.563 64.14C40.223 64.74 39.748 65.215 39.138 65.565C38.528 65.905 37.838 66.075 37.068 66.075ZM37.068 65.13C37.638 65.13 38.143 65.005 38.583 64.755C39.023 64.495 39.368 64.135 39.618 63.675C39.878 63.205 40.008 62.665 40.008 62.055C40.008 61.435 39.878 60.895 39.618 60.435C39.368 59.975 39.023 59.62 38.583 59.37C38.143 59.11 37.643 58.98 37.083 58.98C36.523 58.98 36.023 59.11 35.583 59.37C35.143 59.62 34.793 59.975 34.533 60.435C34.273 60.895 34.143 61.435 34.143 62.055C34.143 62.665 34.273 63.205 34.533 63.675C34.793 64.135 35.143 64.495 35.583 64.755C36.023 65.005 36.518 65.13 37.068 65.13ZM47.2823 58.05C47.9223 58.05 48.4823 58.175 48.9623 58.425C49.4523 58.665 49.8323 59.035 50.1023 59.535C50.3823 60.035 50.5223 60.665 50.5223 61.425V66H49.4573V61.53C49.4573 60.7 49.2473 60.075 48.8273 59.655C48.4173 59.225 47.8373 59.01 47.0873 59.01C46.5273 59.01 46.0373 59.125 45.6173 59.355C45.2073 59.575 44.8873 59.9 44.6573 60.33C44.4373 60.75 44.3273 61.26 44.3273 61.86V66H43.2623V58.125H44.2823V60.285L44.1173 59.88C44.3673 59.31 44.7673 58.865 45.3173 58.545C45.8673 58.215 46.5223 58.05 47.2823 58.05ZM55.5141 66.075C54.8641 66.075 54.2491 65.985 53.6691 65.805C53.0891 65.615 52.6341 65.38 52.3041 65.1L52.7841 64.26C53.1041 64.5 53.5141 64.71 54.0141 64.89C54.5141 65.06 55.0391 65.145 55.5891 65.145C56.3391 65.145 56.8791 65.03 57.2091 64.8C57.5391 64.56 57.7041 64.245 57.7041 63.855C57.7041 63.565 57.6091 63.34 57.4191 63.18C57.2391 63.01 56.9991 62.885 56.6991 62.805C56.3991 62.715 56.0641 62.64 55.6941 62.58C55.3241 62.52 54.9541 62.45 54.5841 62.37C54.2241 62.29 53.8941 62.175 53.5941 62.025C53.2941 61.865 53.0491 61.65 52.8591 61.38C52.6791 61.11 52.5891 60.75 52.5891 60.3C52.5891 59.87 52.7091 59.485 52.9491 59.145C53.1891 58.805 53.5391 58.54 53.9991 58.35C54.4691 58.15 55.0391 58.05 55.7091 58.05C56.2191 58.05 56.7291 58.12 57.2391 58.26C57.7491 58.39 58.1691 58.565 58.4991 58.785L58.0341 59.64C57.6841 59.4 57.3091 59.23 56.9091 59.13C56.5091 59.02 56.1091 58.965 55.7091 58.965C54.9991 58.965 54.4741 59.09 54.1341 59.34C53.8041 59.58 53.6391 59.89 53.6391 60.27C53.6391 60.57 53.7291 60.805 53.9091 60.975C54.0991 61.145 54.3441 61.28 54.6441 61.38C54.9541 61.47 55.2891 61.545 55.6491 61.605C56.0191 61.665 56.3841 61.74 56.7441 61.83C57.1141 61.91 57.4491 62.025 57.7491 62.175C58.0591 62.315 58.3041 62.52 58.4841 62.79C58.6741 63.05 58.7691 63.395 58.7691 63.825C58.7691 64.285 58.6391 64.685 58.3791 65.025C58.1291 65.355 57.7591 65.615 57.2691 65.805C56.7891 65.985 56.2041 66.075 55.5141 66.075ZM60.7233 66V58.125H61.7883V66H60.7233ZM61.2633 56.385C61.0433 56.385 60.8583 56.31 60.7083 56.16C60.5583 56.01 60.4833 55.83 60.4833 55.62C60.4833 55.41 60.5583 55.235 60.7083 55.095C60.8583 54.945 61.0433 54.87 61.2633 54.87C61.4833 54.87 61.6683 54.94 61.8183 55.08C61.9683 55.22 62.0433 55.395 62.0433 55.605C62.0433 55.825 61.9683 56.01 61.8183 56.16C61.6783 56.31 61.4933 56.385 61.2633 56.385ZM66.7766 66L63.2816 58.125H64.3916L67.6016 65.43H67.0766L70.3316 58.125H71.3816L67.8716 66H66.7766ZM76.0068 66.075C75.1868 66.075 74.4668 65.905 73.8468 65.565C73.2268 65.215 72.7418 64.74 72.3918 64.14C72.0418 63.53 71.8668 62.835 71.8668 62.055C71.8668 61.275 72.0318 60.585 72.3618 59.985C72.7018 59.385 73.1618 58.915 73.7418 58.575C74.3318 58.225 74.9918 58.05 75.7218 58.05C76.4618 58.05 77.1168 58.22 77.6868 58.56C78.2668 58.89 78.7218 59.36 79.0518 59.97C79.3818 60.57 79.5468 61.265 79.5468 62.055C79.5468 62.105 79.5418 62.16 79.5318 62.22C79.5318 62.27 79.5318 62.325 79.5318 62.385H72.6768V61.59H78.9618L78.5418 61.905C78.5418 61.335 78.4168 60.83 78.1668 60.39C77.9268 59.94 77.5968 59.59 77.1768 59.34C76.7568 59.09 76.2718 58.965 75.7218 58.965C75.1818 58.965 74.6968 59.09 74.2668 59.34C73.8368 59.59 73.5018 59.94 73.2618 60.39C73.0218 60.84 72.9018 61.355 72.9018 61.935V62.1C72.9018 62.7 73.0318 63.23 73.2918 63.69C73.5618 64.14 73.9318 64.495 74.4018 64.755C74.8818 65.005 75.4268 65.13 76.0368 65.13C76.5168 65.13 76.9618 65.045 77.3718 64.875C77.7918 64.705 78.1518 64.445 78.4518 64.095L79.0518 64.785C78.7018 65.205 78.2618 65.525 77.7318 65.745C77.2118 65.965 76.6368 66.075 76.0068 66.075ZM88.7753 66.075C88.0253 66.075 87.3503 65.905 86.7503 65.565C86.1603 65.225 85.6953 64.755 85.3553 64.155C85.0153 63.545 84.8453 62.845 84.8453 62.055C84.8453 61.255 85.0153 60.555 85.3553 59.955C85.6953 59.355 86.1603 58.89 86.7503 58.56C87.3503 58.22 88.0253 58.05 88.7753 58.05C89.4653 58.05 90.0803 58.205 90.6203 58.515C91.1703 58.825 91.6053 59.28 91.9253 59.88C92.2553 60.47 92.4203 61.195 92.4203 62.055C92.4203 62.905 92.2603 63.63 91.9403 64.23C91.6203 64.83 91.1853 65.29 90.6353 65.61C90.0953 65.92 89.4753 66.075 88.7753 66.075ZM88.8503 65.13C89.4103 65.13 89.9103 65.005 90.3503 64.755C90.8003 64.495 91.1503 64.135 91.4003 63.675C91.6603 63.205 91.7903 62.665 91.7903 62.055C91.7903 61.435 91.6603 60.895 91.4003 60.435C91.1503 59.975 90.8003 59.62 90.3503 59.37C89.9103 59.11 89.4103 58.98 88.8503 58.98C88.3003 58.98 87.8053 59.11 87.3653 59.37C86.9253 59.62 86.5753 59.975 86.3153 60.435C86.0553 60.895 85.9253 61.435 85.9253 62.055C85.9253 62.665 86.0553 63.205 86.3153 63.675C86.5753 64.135 86.9253 64.495 87.3653 64.755C87.8053 65.005 88.3003 65.13 88.8503 65.13ZM91.8203 66V63.63L91.9253 62.04L91.7753 60.45V54.87H92.8403V66H91.8203ZM99.1513 66.075C98.3313 66.075 97.6113 65.905 96.9913 65.565C96.3713 65.215 95.8863 64.74 95.5363 64.14C95.1863 63.53 95.0113 62.835 95.0113 62.055C95.0113 61.275 95.1763 60.585 95.5063 59.985C95.8463 59.385 96.3063 58.915 96.8863 58.575C97.4763 58.225 98.1363 58.05 98.8663 58.05C99.6063 58.05 100.261 58.22 100.831 58.56C101.411 58.89 101.866 59.36 102.196 59.97C102.526 60.57 102.691 61.265 102.691 62.055C102.691 62.105 102.686 62.16 102.676 62.22C102.676 62.27 102.676 62.325 102.676 62.385H95.8213V61.59H102.106L101.686 61.905C101.686 61.335 101.561 60.83 101.311 60.39C101.071 59.94 100.741 59.59 100.321 59.34C99.9013 59.09 99.4163 58.965 98.8663 58.965C98.3263 58.965 97.8413 59.09 97.4113 59.34C96.9813 59.59 96.6463 59.94 96.4063 60.39C96.1663 60.84 96.0463 61.355 96.0463 61.935V62.1C96.0463 62.7 96.1763 63.23 96.4363 63.69C96.7063 64.14 97.0763 64.495 97.5463 64.755C98.0263 65.005 98.5713 65.13 99.1813 65.13C99.6613 65.13 100.106 65.045 100.516 64.875C100.936 64.705 101.296 64.445 101.596 64.095L102.196 64.785C101.846 65.205 101.406 65.525 100.876 65.745C100.356 65.965 99.7813 66.075 99.1513 66.075ZM106.974 66.075C106.324 66.075 105.709 65.985 105.129 65.805C104.549 65.615 104.094 65.38 103.764 65.1L104.244 64.26C104.564 64.5 104.974 64.71 105.474 64.89C105.974 65.06 106.499 65.145 107.049 65.145C107.799 65.145 108.339 65.03 108.669 64.8C108.999 64.56 109.164 64.245 109.164 63.855C109.164 63.565 109.069 63.34 108.879 63.18C108.699 63.01 108.459 62.885 108.159 62.805C107.859 62.715 107.524 62.64 107.154 62.58C106.784 62.52 106.414 62.45 106.044 62.37C105.684 62.29 105.354 62.175 105.054 62.025C104.754 61.865 104.509 61.65 104.319 61.38C104.139 61.11 104.049 60.75 104.049 60.3C104.049 59.87 104.169 59.485 104.409 59.145C104.649 58.805 104.999 58.54 105.459 58.35C105.929 58.15 106.499 58.05 107.169 58.05C107.679 58.05 108.189 58.12 108.699 58.26C109.209 58.39 109.629 58.565 109.959 58.785L109.494 59.64C109.144 59.4 108.769 59.23 108.369 59.13C107.969 59.02 107.569 58.965 107.169 58.965C106.459 58.965 105.934 59.09 105.594 59.34C105.264 59.58 105.099 59.89 105.099 60.27C105.099 60.57 105.189 60.805 105.369 60.975C105.559 61.145 105.804 61.28 106.104 61.38C106.414 61.47 106.749 61.545 107.109 61.605C107.479 61.665 107.844 61.74 108.204 61.83C108.574 61.91 108.909 62.025 109.209 62.175C109.519 62.315 109.764 62.52 109.944 62.79C110.134 63.05 110.229 63.395 110.229 63.825C110.229 64.285 110.099 64.685 109.839 65.025C109.589 65.355 109.219 65.615 108.729 65.805C108.249 65.985 107.664 66.075 106.974 66.075ZM112.183 66V58.125H113.248V66H112.183ZM112.723 56.385C112.503 56.385 112.318 56.31 112.168 56.16C112.018 56.01 111.943 55.83 111.943 55.62C111.943 55.41 112.018 55.235 112.168 55.095C112.318 54.945 112.503 54.87 112.723 54.87C112.943 54.87 113.128 54.94 113.278 55.08C113.428 55.22 113.503 55.395 113.503 55.605C113.503 55.825 113.428 56.01 113.278 56.16C113.138 56.31 112.953 56.385 112.723 56.385ZM119.572 68.985C118.852 68.985 118.162 68.88 117.502 68.67C116.842 68.46 116.307 68.16 115.897 67.77L116.437 66.96C116.807 67.29 117.262 67.55 117.802 67.74C118.352 67.94 118.932 68.04 119.542 68.04C120.542 68.04 121.277 67.805 121.747 67.335C122.217 66.875 122.452 66.155 122.452 65.175V63.21L122.602 61.86L122.497 60.51V58.125H123.517V65.04C123.517 66.4 123.182 67.395 122.512 68.025C121.852 68.665 120.872 68.985 119.572 68.985ZM119.377 65.7C118.627 65.7 117.952 65.54 117.352 65.22C116.752 64.89 116.277 64.435 115.927 63.855C115.587 63.275 115.417 62.61 115.417 61.86C115.417 61.11 115.587 60.45 115.927 59.88C116.277 59.3 116.752 58.85 117.352 58.53C117.952 58.21 118.627 58.05 119.377 58.05C120.077 58.05 120.707 58.195 121.267 58.485C121.827 58.775 122.272 59.205 122.602 59.775C122.932 60.345 123.097 61.04 123.097 61.86C123.097 62.68 122.932 63.375 122.602 63.945C122.272 64.515 121.827 64.95 121.267 65.25C120.707 65.55 120.077 65.7 119.377 65.7ZM119.482 64.755C120.062 64.755 120.577 64.635 121.027 64.395C121.477 64.145 121.832 63.805 122.092 63.375C122.352 62.935 122.482 62.43 122.482 61.86C122.482 61.29 122.352 60.79 122.092 60.36C121.832 59.93 121.477 59.595 121.027 59.355C120.577 59.105 120.062 58.98 119.482 58.98C118.912 58.98 118.397 59.105 117.937 59.355C117.487 59.595 117.132 59.93 116.872 60.36C116.622 60.79 116.497 61.29 116.497 61.86C116.497 62.43 116.622 62.935 116.872 63.375C117.132 63.805 117.487 64.145 117.937 64.395C118.397 64.635 118.912 64.755 119.482 64.755ZM130.5 58.05C131.14 58.05 131.7 58.175 132.18 58.425C132.67 58.665 133.05 59.035 133.32 59.535C133.6 60.035 133.74 60.665 133.74 61.425V66H132.675V61.53C132.675 60.7 132.465 60.075 132.045 59.655C131.635 59.225 131.055 59.01 130.305 59.01C129.745 59.01 129.255 59.125 128.835 59.355C128.425 59.575 128.105 59.9 127.875 60.33C127.655 60.75 127.545 61.26 127.545 61.86V66H126.48V58.125H127.5V60.285L127.335 59.88C127.585 59.31 127.985 58.865 128.535 58.545C129.085 58.215 129.74 58.05 130.5 58.05ZM136.722 66.075C136.502 66.075 136.312 65.995 136.152 65.835C136.002 65.675 135.927 65.48 135.927 65.25C135.927 65.01 136.002 64.815 136.152 64.665C136.312 64.515 136.502 64.44 136.722 64.44C136.942 64.44 137.127 64.515 137.277 64.665C137.437 64.815 137.517 65.01 137.517 65.25C137.517 65.48 137.437 65.675 137.277 65.835C137.127 65.995 136.942 66.075 136.722 66.075Z" fill="white"/>
</svg>
