<svg xmlns="http://www.w3.org/2000/svg" viewBox="0 0 791.72 135.4"><defs><style>.cls-1{fill:#fff;}.cls-2{fill:#034ff9;}</style></defs><title>HORIZONTAL WHITE</title><g id="Calque_2" data-name="Calque 2"><g id="Calque_1-2" data-name="Calque 1"><polygon class="cls-1" points="254.08 64.09 226.14 64.09 226.14 56.74 239.05 56.74 239.05 43.18 226.14 43.18 226.14 36.63 253.04 36.63 253.04 22.42 207.62 22.42 207.62 78.3 254.08 78.3 254.08 64.09"/><path class="cls-1" d="M372.12,54.67a19.78,19.78,0,0,0,3.12-11.18A19.28,19.28,0,0,0,363.3,25a32.91,32.91,0,0,0-13.52-2.55H336.09L322.88,40.81V58.1L337.3,78.29h4.41V64.57h8.07A32.42,32.42,0,0,0,363.3,62,20.3,20.3,0,0,0,372.12,54.67Zm-17.75-6.38c-1.25,1.17-3.19,1.75-5.79,1.75h-6.87V37h6.87c2.6,0,4.54.58,5.79,1.76a6.24,6.24,0,0,1,1.88,4.78A6.27,6.27,0,0,1,354.37,48.29Z"/><polygon class="cls-1" points="410.41 56.74 423.32 56.74 423.32 43.18 410.41 43.18 410.41 36.63 437.31 36.63 437.31 22.42 391.89 22.42 391.89 78.3 438.35 78.3 438.35 64.09 410.41 64.09 410.41 56.74"/><polygon class="cls-1" points="493.5 47.83 472.27 22.42 456.79 22.42 456.79 78.3 475.14 78.3 475.14 52.89 496.38 78.3 511.86 78.3 511.86 22.42 493.5 22.42 493.5 47.83"/><path class="cls-1" d="M572.88,48.6a26.11,26.11,0,0,0-6-3,50.53,50.53,0,0,0-6.59-1.76q-3.32-.63-6.06-1.19a18.25,18.25,0,0,1-4.43-1.4A2.54,2.54,0,0,1,548.1,39a2.66,2.66,0,0,1,.68-1.75A4.71,4.71,0,0,1,551.05,36a15.52,15.52,0,0,1,4.31-.48,29.25,29.25,0,0,1,7.55,1,43,43,0,0,1,8,3.11L576.6,26a35.73,35.73,0,0,0-9.9-3.67,52.36,52.36,0,0,0-11.18-1.2,35.72,35.72,0,0,0-14.4,2.56,20,20,0,0,0-8.71,6.82A16.44,16.44,0,0,0,529.5,40a15.12,15.12,0,0,0,1.68,7.47,13.91,13.91,0,0,0,4.43,4.83,25.82,25.82,0,0,0,6.06,2.95A57.19,57.19,0,0,0,548.26,57l6,1.28a17.85,17.85,0,0,1,4.43,1.48,2.66,2.66,0,0,1,1.67,2.39,2.17,2.17,0,0,1-.72,1.64,4.9,4.9,0,0,1-2.27,1,19.86,19.86,0,0,1-4.27.36,34.81,34.81,0,0,1-9.54-1.4,39,39,0,0,1-8.9-3.71l-6.07,13.73A39,39,0,0,0,539.4,78,57.28,57.28,0,0,0,553,79.57q8.7,0,14.45-2.59a20.3,20.3,0,0,0,8.66-6.86A16.33,16.33,0,0,0,579,60.74a14.69,14.69,0,0,0-1.68-7.35A13.86,13.86,0,0,0,572.88,48.6Z"/><path class="cls-1" d="M637.59,61.11A19.18,19.18,0,0,0,645,54.63a19.55,19.55,0,0,0,3.12-11.13A19.28,19.28,0,0,0,636.18,25a32.76,32.76,0,0,0-13.53-2.56h-26.9V78.3h18.84v-14h5.13l9.48,14h20.11Zm-10.35-22.4a6.24,6.24,0,0,1,1.88,4.79,6.23,6.23,0,0,1-1.88,4.78C626,49.46,624.06,50,621.46,50h-6.87V37h6.87Q625.36,37,627.24,38.71Z"/><path class="cls-1" d="M724.86,62a28.57,28.57,0,0,0,2.36-11.65,28.49,28.49,0,0,0-2.36-11.69,28.11,28.11,0,0,0-6.58-9.26,29.72,29.72,0,0,0-10-6.11,37.77,37.77,0,0,0-25.18,0,29.6,29.6,0,0,0-10,6.11,28.14,28.14,0,0,0-6.59,9.26,28.49,28.49,0,0,0-2.35,11.69A28.57,28.57,0,0,0,666.51,62a28,28,0,0,0,6.59,9.3,29.6,29.6,0,0,0,10,6.11,35.85,35.85,0,0,0,12.65,2.15,35.34,35.34,0,0,0,12.53-2.15,29.72,29.72,0,0,0,10-6.11A28,28,0,0,0,724.86,62Zm-17.6-5.78a12.65,12.65,0,0,1-2.67,4.39,12,12,0,0,1-4,2.75,13,13,0,0,1-9.82,0,11.83,11.83,0,0,1-4-2.75,12.52,12.52,0,0,1-2.68-4.39,18.61,18.61,0,0,1,0-11.74,12.52,12.52,0,0,1,2.68-4.39,11.83,11.83,0,0,1,4-2.75,13,13,0,0,1,9.82,0,12,12,0,0,1,4,2.75,12.65,12.65,0,0,1,2.67,4.39,16.85,16.85,0,0,1,1,5.87A16.85,16.85,0,0,1,707.26,56.23Z"/><polygon class="cls-1" points="789.32 63.69 764.1 63.69 764.1 22.42 745.26 22.42 745.26 78.3 789.32 78.3 789.32 63.69"/><path class="cls-1" d="M209.18,105.25a7.07,7.07,0,0,1,2.36-1.53,8.29,8.29,0,0,1,5.75,0,6.39,6.39,0,0,1,2.38,1.59l1.18-1.18a7.27,7.27,0,0,0-2.83-1.92,10.2,10.2,0,0,0-3.59-.64,9.73,9.73,0,0,0-3.66.67,8.6,8.6,0,0,0-2.93,1.87,8.43,8.43,0,0,0-1.93,2.83,9.55,9.55,0,0,0,0,7.13,8.58,8.58,0,0,0,4.83,4.7,10.44,10.44,0,0,0,7.28,0,7.29,7.29,0,0,0,2.83-1.93l-1.18-1.18a6.7,6.7,0,0,1-2.38,1.61,8.21,8.21,0,0,1-5.75,0,7.07,7.07,0,0,1-2.36-1.53,7.37,7.37,0,0,1,0-10.41Z"/><path class="cls-1" d="M252.25,104.06a8.6,8.6,0,0,0-2.93-1.87,10.41,10.41,0,0,0-7.35,0,8.68,8.68,0,0,0-4.85,4.71,9.48,9.48,0,0,0,0,7.1,8.61,8.61,0,0,0,4.87,4.72,10.51,10.51,0,0,0,7.33,0,8.75,8.75,0,0,0,2.93-1.87,8.53,8.53,0,0,0,1.93-2.83,9.55,9.55,0,0,0,0-7.13A8.43,8.43,0,0,0,252.25,104.06Zm.21,9.29a7.14,7.14,0,0,1-1.54,2.31,6.94,6.94,0,0,1-2.33,1.53,8.22,8.22,0,0,1-5.86,0,6.83,6.83,0,0,1-2.35-1.53,7.4,7.4,0,0,1,0-10.41,6.83,6.83,0,0,1,2.35-1.53,8.22,8.22,0,0,1,5.86,0,6.94,6.94,0,0,1,2.33,1.53,7.14,7.14,0,0,1,1.54,2.31,7.89,7.89,0,0,1,0,5.79Z"/><polygon class="cls-1" points="285.43 115.92 274.11 101.67 272.58 101.67 272.58 119.23 274.44 119.23 274.44 104.99 285.73 119.23 287.26 119.23 287.26 101.67 285.43 101.67 285.43 115.92"/><polygon class="cls-1" points="303.76 103.28 309.94 103.28 309.94 119.23 311.79 119.23 311.79 103.28 317.96 103.28 317.96 101.67 303.76 101.67 303.76 103.28"/><path class="cls-1" d="M344.88,113a5.56,5.56,0,0,0,2.48-2.06,5.82,5.82,0,0,0,.86-3.2,5.94,5.94,0,0,0-.86-3.25,5.54,5.54,0,0,0-2.48-2,9.32,9.32,0,0,0-3.83-.72h-6.58v17.56h1.86v-5.57h4.72a10.51,10.51,0,0,0,1.4-.09l4,5.66h2l-4.3-6A5,5,0,0,0,344.88,113Zm-3.88-.87h-4.67v-8.8H341a6.08,6.08,0,0,1,4,1.15,4.56,4.56,0,0,1,0,6.5A6.08,6.08,0,0,1,341,112.08Z"/><path class="cls-1" d="M380.42,104.06a8.65,8.65,0,0,0-2.92-1.87,10.41,10.41,0,0,0-7.35,0,8.65,8.65,0,0,0-4.86,4.71,9.48,9.48,0,0,0,0,7.1,8.83,8.83,0,0,0,1.93,2.84,8.66,8.66,0,0,0,2.94,1.88,10.53,10.53,0,0,0,7.34,0,8.81,8.81,0,0,0,2.92-1.87,8.53,8.53,0,0,0,1.93-2.83,9.55,9.55,0,0,0,0-7.13A8.43,8.43,0,0,0,380.42,104.06Zm.21,9.29a7,7,0,0,1-3.87,3.84,8.22,8.22,0,0,1-5.86,0,6.93,6.93,0,0,1-2.35-1.53,7.4,7.4,0,0,1,0-10.41,6.93,6.93,0,0,1,2.35-1.53,8.22,8.22,0,0,1,5.86,0,7,7,0,0,1,3.87,3.84,7.76,7.76,0,0,1,0,5.79Z"/><polygon class="cls-1" points="402.61 101.67 400.75 101.67 400.75 119.23 412.44 119.23 412.44 117.63 402.61 117.63 402.61 101.67"/><polygon class="cls-1" points="460.39 101.67 454.37 111.52 448.35 101.67 446.36 101.67 453.39 113.17 453.39 119.23 455.22 119.23 455.22 113.17 462.24 101.67 460.39 101.67"/><path class="cls-1" d="M492.19,104.06a8.69,8.69,0,0,0-2.93-1.87,10.41,10.41,0,0,0-7.35,0,8.68,8.68,0,0,0-4.85,4.71,9.48,9.48,0,0,0,0,7.1,8.61,8.61,0,0,0,4.87,4.72,10.51,10.51,0,0,0,7.33,0,8.85,8.85,0,0,0,2.93-1.87,8.68,8.68,0,0,0,1.93-2.83,9.55,9.55,0,0,0,0-7.13A8.57,8.57,0,0,0,492.19,104.06Zm.21,9.29a7.14,7.14,0,0,1-1.54,2.31,6.88,6.88,0,0,1-2.34,1.53,7.74,7.74,0,0,1-2.92.54,7.83,7.83,0,0,1-2.93-.54,6.83,6.83,0,0,1-2.35-1.53,7.37,7.37,0,0,1,0-10.41,6.83,6.83,0,0,1,2.35-1.53,7.83,7.83,0,0,1,2.93-.54,7.74,7.74,0,0,1,2.92.54,6.88,6.88,0,0,1,2.34,1.53,7.14,7.14,0,0,1,1.54,2.31,7.89,7.89,0,0,1,0,5.79Z"/><path class="cls-1" d="M525,111.66a6.47,6.47,0,0,1-1.41,4.59,6.08,6.08,0,0,1-8,0,6.47,6.47,0,0,1-1.4-4.59v-10h-1.86v10.06c0,2.53.64,4.43,1.93,5.72a8.21,8.21,0,0,0,10.58,0,7.82,7.82,0,0,0,1.91-5.72V101.67H525Z"/><path class="cls-1" d="M556.35,113a5.53,5.53,0,0,0,2.47-2.06,5.73,5.73,0,0,0,.86-3.2,5.86,5.86,0,0,0-.86-3.25,5.51,5.51,0,0,0-2.47-2,9.33,9.33,0,0,0-3.84-.72h-6.57v17.56h1.85v-5.57h4.72a10.56,10.56,0,0,0,1.41-.09l4,5.66h2l-4.3-6A5.13,5.13,0,0,0,556.35,113Zm-3.89-.87h-4.67v-8.8h4.67a6,6,0,0,1,4,1.15,4.54,4.54,0,0,1,0,6.5A6,6,0,0,1,552.46,112.08Z"/><polygon class="cls-1" points="597.74 119.23 599.6 119.23 599.6 111.78 608.68 111.78 608.68 110.18 599.6 110.18 599.6 103.28 609.78 103.28 609.78 101.67 597.74 101.67 597.74 119.23"/><rect class="cls-1" x="627.17" y="101.67" width="1.86" height="17.56"/><polygon class="cls-1" points="661.14 115.92 649.83 101.67 648.29 101.67 648.29 119.23 650.15 119.23 650.15 104.99 661.44 119.23 662.97 119.23 662.97 101.67 661.14 101.67 661.14 115.92"/><path class="cls-1" d="M687.46,101.67l-8,17.56h1.93l2.1-4.69h9.8l2.1,4.69h2l-8-17.56ZM684.13,113l4.23-9.45,4.23,9.45Z"/><polygon class="cls-1" points="726.62 115.92 715.3 101.67 713.77 101.67 713.77 119.23 715.63 119.23 715.63 104.99 726.92 119.23 728.45 119.23 728.45 101.67 726.62 101.67 726.62 115.92"/><path class="cls-1" d="M750.12,105.25a7.07,7.07,0,0,1,2.36-1.53,8.29,8.29,0,0,1,5.75,0,6.39,6.39,0,0,1,2.38,1.59l1.18-1.18a7.27,7.27,0,0,0-2.83-1.92,10.2,10.2,0,0,0-3.59-.64,9.73,9.73,0,0,0-3.66.67,8.6,8.6,0,0,0-2.93,1.87,8.43,8.43,0,0,0-1.93,2.83,9.55,9.55,0,0,0,0,7.13,8.58,8.58,0,0,0,4.83,4.7,10.44,10.44,0,0,0,7.28,0,7.29,7.29,0,0,0,2.83-1.93l-1.18-1.18a6.7,6.7,0,0,1-2.38,1.61,8.21,8.21,0,0,1-5.75,0,7.07,7.07,0,0,1-2.36-1.53,7.37,7.37,0,0,1,0-10.41Z"/><polygon class="cls-1" points="781.16 117.63 781.16 111.11 790.24 111.11 790.24 109.53 781.16 109.53 781.16 103.28 791.35 103.28 791.35 101.67 779.3 101.67 779.3 119.23 791.72 119.23 791.72 117.63 781.16 117.63"/><polygon class="cls-2" points="328.67 22.43 308.4 22.43 302.32 31.64 312.05 45.53 328.67 22.43"/><polygon class="cls-2" points="301.89 68.37 308.32 78.29 329.87 78.29 312.38 53.81 301.89 68.37"/><polygon class="cls-1" points="302.11 56.5 303.73 53.93 306.77 49.08 303.73 44.56 302.79 43.18 302.85 43.18 298.3 36.47 288.8 22.43 267.65 22.43 287.12 50.08 266.93 78.29 288.4 78.29 297.81 63.35 302.13 56.5 302.11 56.5"/><path class="cls-2" d="M2.09.49A1.13,1.13,0,0,0,1.15,0,1.16,1.16,0,0,0,0,1.15V131.81a1.15,1.15,0,0,0,2.09.67L48.47,67.7a1.16,1.16,0,0,0,0-1.34Z"/><path class="cls-1" d="M150.63,0a1.92,1.92,0,0,0-1.55.79l-38.15,53a1.9,1.9,0,0,1-3.11,0L86.53,23.4a1.92,1.92,0,0,1,0-2.14L98.56,3A1.91,1.91,0,0,0,97,0H56.61A1.91,1.91,0,0,0,55,3L76,34l11,16.26h-.13l2.26,3.35,6.69,9.94a1.89,1.89,0,0,1,0,2.08L89.19,76.35l-3.92,6.24h0L74.86,99.19l-21,33.28a1.91,1.91,0,0,0,1.61,2.93H96.8a1.91,1.91,0,0,0,1.6-3l-12.94-20a1.91,1.91,0,0,1,.05-2.16l23.1-32.08a1.91,1.91,0,0,1,3.11,0l37.35,52.32a1.92,1.92,0,0,0,3.47-1.11V1.91A1.92,1.92,0,0,0,150.63,0Z"/></g></g></svg>