<svg xmlns="http://www.w3.org/2000/svg" viewBox="0 0 60.54 53.73"><defs><style>.cls-1{fill:#034ff9;}.cls-2{fill:#011138;}</style></defs><title>ICON</title><g id="Calque_2" data-name="Calque 2"><g id="Calque_1-2" data-name="Calque 1"><path class="cls-1" d="M.83,52.58,19.24,26.86a.45.45,0,0,0,0-.52L.83.19A.44.44,0,0,0,.46,0,.45.45,0,0,0,0,.46V52.31A.46.46,0,0,0,.83,52.58Z"/><path class="cls-2" d="M60.54,51.37V.76A.76.76,0,0,0,59.16.32L44,21.36a.75.75,0,0,1-1.23,0L34.34,9.29a.75.75,0,0,1,0-.85l4.78-7.26A.76.76,0,0,0,38.48,0h-16a.76.76,0,0,0-.63,1.18L30.18,13.5,34.55,20h0l.89,1.33,2.66,3.94a.76.76,0,0,1,0,.83L35.39,30.3l-1.55,2.48h0l-4.15,6.58L21.39,52.57A.75.75,0,0,0,22,53.73H38.41a.76.76,0,0,0,.64-1.17l-5.14-7.93a.75.75,0,0,1,0-.86L43.1,31a.77.77,0,0,1,1.24,0L59.16,51.81A.76.76,0,0,0,60.54,51.37Z"/></g></g></svg>