<svg xmlns="http://www.w3.org/2000/svg" viewBox="0 0 701.33 321.22"><defs><style>.cls-1{fill:#011138;}.cls-2{fill:#034ff9;}</style></defs><title>VERTICAL LOGO</title><g id="Calque_2" data-name="Calque 2"><g id="Calque_1-2" data-name="Calque 1"><polygon class="cls-1" points="58.42 255.1 25.02 255.1 25.02 246.32 40.45 246.32 40.45 230.09 25.02 230.09 25.02 222.27 57.18 222.27 57.18 205.28 2.87 205.28 2.87 272.09 58.42 272.09 58.42 255.1"/><path class="cls-1" d="M199.58,243.83a23.58,23.58,0,0,0,3.73-13.36A23.06,23.06,0,0,0,189,208.33a39.46,39.46,0,0,0-16.18-3.05H156.49l-15.8,22v20.67l17.25,24.15h5.28V255.67h9.64a38.79,38.79,0,0,0,16.18-3.1A24.25,24.25,0,0,0,199.58,243.83Zm-21.23-7.63c-1.5,1.41-3.81,2.1-6.92,2.1h-8.21V222.65h8.21q4.66,0,6.92,2.1a8.41,8.41,0,0,1,0,11.45Z"/><polygon class="cls-1" points="245.36 246.32 260.8 246.32 260.8 230.09 245.36 230.09 245.36 222.27 277.53 222.27 277.53 205.28 223.22 205.28 223.22 272.09 278.77 272.09 278.77 255.1 245.36 255.1 245.36 246.32"/><polygon class="cls-1" points="344.73 235.66 319.34 205.28 300.82 205.28 300.82 272.09 322.77 272.09 322.77 241.71 348.16 272.09 366.68 272.09 366.68 205.28 344.73 205.28 344.73 235.66"/><path class="cls-1" d="M439.65,236.58a31,31,0,0,0-7.21-3.53,59.06,59.06,0,0,0-7.87-2.1c-2.64-.51-5.06-1-7.25-1.43a21.27,21.27,0,0,1-5.3-1.67,3,3,0,0,1-2-2.72,3.15,3.15,0,0,1,.82-2.1,5.65,5.65,0,0,1,2.72-1.53,18.63,18.63,0,0,1,5.15-.57,35.08,35.08,0,0,1,9,1.24,51.55,51.55,0,0,1,9.59,3.72l6.78-16.32a42.51,42.51,0,0,0-11.84-4.39,63,63,0,0,0-13.36-1.43q-10.31,0-17.23,3.05a23.85,23.85,0,0,0-10.4,8.16,19.61,19.61,0,0,0-3.49,11.32,18,18,0,0,0,2,8.92,16.47,16.47,0,0,0,5.3,5.78,30.68,30.68,0,0,0,7.25,3.53,67.27,67.27,0,0,0,7.87,2.14c2.61.55,5,1,7.21,1.53a21.51,21.51,0,0,1,5.3,1.77,3.17,3.17,0,0,1,2,2.86,2.57,2.57,0,0,1-.86,2,5.9,5.9,0,0,1-2.72,1.24,23.5,23.5,0,0,1-5.1.43,41.74,41.74,0,0,1-11.41-1.67A46.11,46.11,0,0,1,394,250.33l-7.26,16.42a46.38,46.38,0,0,0,12.89,5,68.42,68.42,0,0,0,16.23,1.91q10.4,0,17.27-3.1a24.2,24.2,0,0,0,10.36-8.21A19.48,19.48,0,0,0,447,251.09a17.65,17.65,0,0,0-2-8.78A16.76,16.76,0,0,0,439.65,236.58Z"/><path class="cls-1" d="M517,251.54a23,23,0,0,0,8.87-7.75,23.44,23.44,0,0,0,3.72-13.31,23.05,23.05,0,0,0-14.27-22.15,39.46,39.46,0,0,0-16.18-3.05H467v66.81h22.52v-16.8h6.14L507,272.09h24Zm-12.37-26.79a8.44,8.44,0,0,1,0,11.45q-2.23,2.1-6.92,2.1h-8.21V222.65h8.21Q502.41,222.65,504.65,224.75Z"/><path class="cls-1" d="M621.39,252.62a36.08,36.08,0,0,0,0-27.92,33.79,33.79,0,0,0-7.88-11.07,35.56,35.56,0,0,0-11.93-7.3,45.21,45.21,0,0,0-30.11,0,35.39,35.39,0,0,0-12,7.3,33.65,33.65,0,0,0-7.88,11.07,36.08,36.08,0,0,0,0,27.92,33.54,33.54,0,0,0,7.88,11.12,35.39,35.39,0,0,0,12,7.3,43,43,0,0,0,15.13,2.58,42.31,42.31,0,0,0,15-2.58,35.56,35.56,0,0,0,11.93-7.3A33.68,33.68,0,0,0,621.39,252.62Zm-21-6.92a14.9,14.9,0,0,1-3.2,5.25,14.12,14.12,0,0,1-4.77,3.29,15.56,15.56,0,0,1-11.74,0,14.12,14.12,0,0,1-4.77-3.29,14.9,14.9,0,0,1-3.2-5.25,22,22,0,0,1,0-14,14.9,14.9,0,0,1,3.2-5.25,14.12,14.12,0,0,1,4.77-3.29,15.56,15.56,0,0,1,11.74,0,14.12,14.12,0,0,1,4.77,3.29,14.9,14.9,0,0,1,3.2,5.25,22,22,0,0,1,0,14Z"/><polygon class="cls-1" points="698.46 254.63 668.3 254.63 668.3 205.28 645.77 205.28 645.77 272.09 698.46 272.09 698.46 254.63"/><path class="cls-1" d="M4.74,304.32a8.37,8.37,0,0,1,2.82-1.83,9.4,9.4,0,0,1,3.51-.65,9.49,9.49,0,0,1,3.36.59,7.8,7.8,0,0,1,2.85,1.9l1.41-1.41a8.6,8.6,0,0,0-3.39-2.29,12,12,0,0,0-4.29-.77,11.81,11.81,0,0,0-4.38.8,10.25,10.25,0,0,0-5.81,5.62,11.48,11.48,0,0,0,0,8.52,10.49,10.49,0,0,0,2.3,3.39,10.36,10.36,0,0,0,3.48,2.24,11.8,11.8,0,0,0,4.38.79,11.84,11.84,0,0,0,4.32-.78,8.75,8.75,0,0,0,3.39-2.31l-1.41-1.41a8,8,0,0,1-2.85,1.92,9.28,9.28,0,0,1-3.36.6,9.4,9.4,0,0,1-3.51-.64,8.37,8.37,0,0,1-2.82-1.83A8.61,8.61,0,0,1,2.86,314a9.29,9.29,0,0,1,0-6.93A8.61,8.61,0,0,1,4.74,304.32Z"/><path class="cls-1" d="M56.23,302.89a10.48,10.48,0,0,0-3.49-2.23,12.47,12.47,0,0,0-8.79,0,10.36,10.36,0,0,0-5.81,5.64,11.4,11.4,0,0,0,0,8.49A10.34,10.34,0,0,0,44,320.43a12,12,0,0,0,4.4.79,11.8,11.8,0,0,0,4.38-.79,10.51,10.51,0,0,0,3.49-2.24,10.21,10.21,0,0,0,2.31-3.39,11.35,11.35,0,0,0,0-8.52A10.21,10.21,0,0,0,56.23,302.89ZM56.49,314a8.53,8.53,0,0,1-1.85,2.76,8.25,8.25,0,0,1-2.79,1.83,9.26,9.26,0,0,1-3.49.64,9.4,9.4,0,0,1-3.51-.64A8.24,8.24,0,0,1,42,316.77a8.83,8.83,0,0,1,0-12.45,8.24,8.24,0,0,1,2.81-1.83,9.4,9.4,0,0,1,3.51-.65,9.26,9.26,0,0,1,3.49.65,8.25,8.25,0,0,1,2.79,1.83,8.53,8.53,0,0,1,1.85,2.76,9.43,9.43,0,0,1,0,6.93Z"/><polygon class="cls-1" points="95.91 317.07 82.38 300.04 80.55 300.04 80.55 321.04 82.77 321.04 82.77 304.01 96.27 321.04 98.1 321.04 98.1 300.04 95.91 300.04 95.91 317.07"/><polygon class="cls-1" points="117.84 301.96 125.22 301.96 125.22 321.04 127.44 321.04 127.44 301.96 134.82 301.96 134.82 300.04 117.84 300.04 117.84 301.96"/><path class="cls-1" d="M167,313.53a6.59,6.59,0,0,0,3-2.46,6.92,6.92,0,0,0,1-3.83,7,7,0,0,0-1-3.88,6.59,6.59,0,0,0-3-2.46,11.22,11.22,0,0,0-4.59-.86h-7.86v21h2.22v-6.66h5.64a14.88,14.88,0,0,0,1.68-.1l4.8,6.76h2.43l-5.14-7.21C166.47,313.74,166.75,313.64,167,313.53Zm-4.65-1h-5.58V302h5.58a7.23,7.23,0,0,1,4.78,1.38,5.42,5.42,0,0,1,0,7.77A7.23,7.23,0,0,1,162.36,312.49Z"/><path class="cls-1" d="M209.5,302.89a10.48,10.48,0,0,0-3.49-2.23,12.47,12.47,0,0,0-8.79,0,10.36,10.36,0,0,0-5.81,5.64,11.4,11.4,0,0,0,0,8.49,10.34,10.34,0,0,0,5.82,5.64,12,12,0,0,0,4.4.79,11.8,11.8,0,0,0,4.38-.79,10.51,10.51,0,0,0,3.49-2.24,10.21,10.21,0,0,0,2.31-3.39,11.35,11.35,0,0,0,0-8.52A10.21,10.21,0,0,0,209.5,302.89Zm.26,11.12a8.53,8.53,0,0,1-1.85,2.76,8.25,8.25,0,0,1-2.79,1.83,9.26,9.26,0,0,1-3.49.64,9.4,9.4,0,0,1-3.51-.64,8.24,8.24,0,0,1-2.81-1.83,8.83,8.83,0,0,1,0-12.45,8.24,8.24,0,0,1,2.81-1.83,9.4,9.4,0,0,1,3.51-.65,9.26,9.26,0,0,1,3.49.65,8.25,8.25,0,0,1,2.79,1.83,8.53,8.53,0,0,1,1.85,2.76,9.43,9.43,0,0,1,0,6.93Z"/><polygon class="cls-1" points="236.04 300.04 233.82 300.04 233.82 321.04 247.8 321.04 247.8 319.12 236.04 319.12 236.04 300.04"/><polygon class="cls-1" points="305.13 300.04 297.93 311.82 290.73 300.04 288.36 300.04 296.76 313.79 296.76 321.04 298.95 321.04 298.95 313.79 307.35 300.04 305.13 300.04"/><path class="cls-1" d="M343.15,302.89a10.48,10.48,0,0,0-3.49-2.23,12.47,12.47,0,0,0-8.79,0,10.36,10.36,0,0,0-5.81,5.64,11.4,11.4,0,0,0,0,8.49,10.34,10.34,0,0,0,5.82,5.64,12,12,0,0,0,4.4.79,11.8,11.8,0,0,0,4.38-.79,10.51,10.51,0,0,0,3.49-2.24,10.21,10.21,0,0,0,2.31-3.39,11.35,11.35,0,0,0,0-8.52A10.21,10.21,0,0,0,343.15,302.89Zm.26,11.12a8.53,8.53,0,0,1-1.85,2.76,8.25,8.25,0,0,1-2.79,1.83,9.26,9.26,0,0,1-3.49.64,9.4,9.4,0,0,1-3.51-.64,8.24,8.24,0,0,1-2.81-1.83,8.83,8.83,0,0,1,0-12.45,8.24,8.24,0,0,1,2.81-1.83,9.4,9.4,0,0,1,3.51-.65,9.26,9.26,0,0,1,3.49.65,8.25,8.25,0,0,1,2.79,1.83,8.53,8.53,0,0,1,1.85,2.76,9.43,9.43,0,0,1,0,6.93Z"/><path class="cls-1" d="M382.38,312q0,3.72-1.68,5.49a7.27,7.27,0,0,1-9.51,0q-1.68-1.77-1.68-5.49V300h-2.22v12q0,4.53,2.31,6.84a9.8,9.8,0,0,0,12.64,0q2.29-2.31,2.3-6.84V300h-2.16Z"/><path class="cls-1" d="M419.88,313.53a6.59,6.59,0,0,0,2.95-2.46,6.92,6.92,0,0,0,1-3.83,7,7,0,0,0-1-3.88,6.59,6.59,0,0,0-2.95-2.46,11.22,11.22,0,0,0-4.59-.86h-7.86v21h2.22v-6.66h5.64a15,15,0,0,0,1.68-.1l4.8,6.76h2.43l-5.14-7.21C419.34,313.74,419.62,313.64,419.88,313.53Zm-4.65-1h-5.58V302h5.58a7.23,7.23,0,0,1,4.78,1.38,5.42,5.42,0,0,1,0,7.77A7.23,7.23,0,0,1,415.23,312.49Z"/><polygon class="cls-1" points="469.38 321.04 471.6 321.04 471.6 312.13 482.46 312.13 482.46 310.21 471.6 310.21 471.6 301.96 483.78 301.96 483.78 300.04 469.38 300.04 469.38 321.04"/><rect class="cls-1" x="504.57" y="300.04" width="2.22" height="21"/><polygon class="cls-1" points="545.19 317.08 531.66 300.04 529.83 300.04 529.83 321.04 532.05 321.04 532.05 304.01 545.55 321.04 547.38 321.04 547.38 300.04 545.19 300.04 545.19 317.08"/><path class="cls-1" d="M576.66,300l-9.6,21h2.31l2.51-5.61H583.6l2.51,5.61h2.34l-9.6-21Zm-4,13.59,5.06-11.29,5,11.29Z"/><polygon class="cls-1" points="623.49 317.08 609.96 300.04 608.13 300.04 608.13 321.04 610.35 321.04 610.35 304.01 623.85 321.04 625.67 321.04 625.67 300.04 623.49 300.04 623.49 317.08"/><path class="cls-1" d="M651.59,304.32a8.32,8.32,0,0,1,2.83-1.83,9.39,9.39,0,0,1,3.5-.65,9.55,9.55,0,0,1,3.37.59,7.84,7.84,0,0,1,2.84,1.9l1.41-1.41a8.64,8.64,0,0,0-3.38-2.29,12,12,0,0,0-4.29-.77,11.77,11.77,0,0,0-4.38.8,10.43,10.43,0,0,0-3.5,2.23,10.21,10.21,0,0,0-2.31,3.39,11.35,11.35,0,0,0,0,8.52,10.21,10.21,0,0,0,5.78,5.63,11.71,11.71,0,0,0,4.37.79,11.89,11.89,0,0,0,4.33-.78,8.79,8.79,0,0,0,3.38-2.31l-1.41-1.41a8,8,0,0,1-2.84,1.92,9.83,9.83,0,0,1-6.87,0,8.32,8.32,0,0,1-2.83-1.83,8.59,8.59,0,0,1-1.87-2.76,9.17,9.17,0,0,1,0-6.93A8.59,8.59,0,0,1,651.59,304.32Z"/><polygon class="cls-1" points="688.71 319.12 688.71 311.32 699.57 311.32 699.57 309.43 688.71 309.43 688.71 301.96 700.89 301.96 700.89 300.04 686.49 300.04 686.49 321.04 701.34 321.04 701.34 319.12 688.71 319.12"/><polygon class="cls-2" points="147.62 205.28 123.38 205.28 116.11 216.3 127.75 232.91 147.62 205.28"/><polygon class="cls-2" points="115.6 260.23 123.28 272.09 149.05 272.09 128.15 242.81 115.6 260.23"/><polygon class="cls-1" points="115.86 246.03 117.79 242.95 121.44 237.16 117.79 231.75 116.68 230.1 116.74 230.1 111.31 222.07 99.94 205.28 74.65 205.28 97.94 238.35 73.79 272.09 99.47 272.09 110.72 254.22 115.88 246.03 115.86 246.03"/><path class="cls-2" d="M276.49,132.48,322.87,67.7a1.16,1.16,0,0,0,0-1.34L276.49.49a1.15,1.15,0,0,0-2.09.66V131.81A1.15,1.15,0,0,0,276.49,132.48Z"/><path class="cls-1" d="M426.94,129.44V1.91A1.91,1.91,0,0,0,423.48.79l-38.15,53a1.91,1.91,0,0,1-3.12,0L360.93,23.4a1.9,1.9,0,0,1,0-2.14L373,3a1.91,1.91,0,0,0-1.6-3H331a1.91,1.91,0,0,0-1.58,3l21,31.05,11,16.26h-.13l2.26,3.35,6.69,9.94a1.89,1.89,0,0,1,0,2.08l-6.72,10.69-3.92,6.24h.05l-10.46,16.6-21,33.28a1.91,1.91,0,0,0,1.62,2.93h41.28a1.91,1.91,0,0,0,1.61-3l-12.94-20a1.91,1.91,0,0,1,.05-2.16L383,78.22a1.91,1.91,0,0,1,3.11,0l37.35,52.32A1.92,1.92,0,0,0,426.94,129.44Z"/></g></g></svg>